  0
SECTION
  2
HEADER
  9
$ACADVER
  1
AC1014
  9
$HANDSEED
  5
FFFF
  9
$MEASUREMENT
 70
     1
  0
ENDSEC
  0
SECTION
  2
TABLES
  0
TABLE
  2
VPORT
  5
8
330
0
100
AcDbSymbolTable
 70
     4
  0
VPORT
  5
2E
330
8
100
AcDbSymbolTableRecord
100
AcDbViewportTableRecord
  2
*ACTIVE
 70
     0
 10
0.0
 20
0.0
 11
1.0
 21
1.0
 12
210.0
 22
148.5
 13
0.0
 23
0.0
 14
10.0
 24
10.0
 15
10.0
 25
10.0
 16
0.0
 26
0.0
 36
1.0
 17
0.0
 27
0.0
 37
0.0
 40
341.0
 41
1.24
 42
50.0
 43
0.0
 44
0.0
 50
0.0
 51
0.0
 71
     0
 72
   100
 73
     1
 74
     3
 75
     0
 76
     0
 77
     0
 78
     0
  0
ENDTAB
  0
TABLE
  2
LTYPE
  5
5
330
0
100
AcDbSymbolTable
 70
     1
  0
LTYPE
  5
14
330
5
100
AcDbSymbolTableRecord
100
AcDbLinetypeTableRecord
  2
BYBLOCK
 70
     0
  3

 72
    65
 73
     0
 40
0.0
  0
LTYPE
  5
15
330
5
100
AcDbSymbolTableRecord
100
AcDbLinetypeTableRecord
  2
BYLAYER
 70
     0
  3

 72
    65
 73
     0
 40
0.0
  0
LTYPE
  5
16
330
5
100
AcDbSymbolTableRecord
100
AcDbLinetypeTableRecord
  2
CONTINUOUS
 70
     0
  3
Solid line
 72
    65
 73
     0
 40
0.0
  0
ENDTAB
  0
TABLE
  2
LAYER
  5
2
100
AcDbSymbolTable
 70
2
  0
LAYER
  5
50
100
AcDbSymbolTableRecord
100
AcDbLayerTableRecord
  2
0
 70
0
  6
CONTINUOUS
  0
LAYER
  5
51
100
AcDbSymbolTableRecord
100
AcDbLayerTableRecord
  2
Layer_1
 70
0
  6
CONTINUOUS
  0
ENDTAB
  0
TABLE
  2
STYLE
  5
3
330
0
100
AcDbSymbolTable
 70
     1
  0
STYLE
  5
11
330
3
100
AcDbSymbolTableRecord
100
AcDbTextStyleTableRecord
  2
STANDARD
 70
     0
 40
0.0
 41
1.0
 50
0.0
 71
     0
 42
2.5
  3
txt
  4

  0
ENDTAB
  0
TABLE
  2
VIEW
  5
6
330
0
100
AcDbSymbolTable
 70
     0
  0
ENDTAB
  0
TABLE
  2
UCS
  5
7
330
0
100
AcDbSymbolTable
 70
     0
  0
ENDTAB
  0
TABLE
  2
APPID
  5
9
330
0
100
AcDbSymbolTable
 70
     2
  0
APPID
  5
12
330
9
100
AcDbSymbolTableRecord
100
AcDbRegAppTableRecord
  2
ACAD
 70
     0
  0
ENDTAB
  0
TABLE
  2
DIMSTYLE
  5
A
330
0
100
AcDbSymbolTable
 70
     1
  0
DIMSTYLE
105
27
330
A
100
AcDbSymbolTableRecord
100
AcDbDimStyleTableRecord
  2
ISO-25
 70
     0
  3

  4

  5

  6

  7

 40
1.0
 41
2.5
 42
0.625
 43
3.75
 44
1.25
 45
0.0
 46
0.0
 47
0.0
 48
0.0
140
2.5
141
2.5
142
0.0
143
0.03937007874016
144
1.0
145
0.0
146
1.0
147
0.625
 71
     0
 72
     0
 73
     0
 74
     0
 75
     0
 76
     0
 77
     1
 78
     8
170
     0
171
     3
172
     1
173
     0
174
     0
175
     0
176
     0
177
     0
178
     0
270
     2
271
     2
272
     2
273
     2
274
     3
340
11
275
     0
280
     0
281
     0
282
     0
283
     0
284
     8
285
     0
286
     0
287
     3
288
     0
  0
ENDTAB
  0
TABLE
  2
BLOCK_RECORD
  5
1
330
0
100
AcDbSymbolTable
 70
     1
  0
BLOCK_RECORD
  5
1F
330
1
100
AcDbSymbolTableRecord
100
AcDbBlockTableRecord
  2
*MODEL_SPACE
  0
BLOCK_RECORD
  5
1B
330
1
100
AcDbSymbolTableRecord
100
AcDbBlockTableRecord
  2
*PAPER_SPACE
  0
ENDTAB
  0
ENDSEC
  0
SECTION
  2
BLOCKS
  0
BLOCK
  5
20
330
1F
100
AcDbEntity
  8
0
100
AcDbBlockBegin
  2
*MODEL_SPACE
 70
     0
 10
0.0
 20
0.0
 30
0.0
  3
*MODEL_SPACE
  1

  0
ENDBLK
  5
21
330
1F
100
AcDbEntity
  8
0
100
AcDbBlockEnd
  0
BLOCK
  5
1C
330
1B
100
AcDbEntity
 67
     1
  8
0
100
AcDbBlockBegin
  2
*PAPER_SPACE
  1

  0
ENDBLK
  5
1D
330
1B
100
AcDbEntity
 67
     1
  8
0
100
AcDbBlockEnd
  0
ENDSEC
  0
SECTION
  2
ENTITIES
  0
SPLINE
  5
100
100
AcDbEntity
  8
Layer_1
 62
7
100
AcDbSpline
 70
8
 71
3
 72
8
 73
4
 74
0
 40
0
 40
0
 40
0
 40
0
 40
1
 40
1
 40
1
 40
1
 10
7.757346
 20
2.811221
 30
0.0
 10
4.555309
 20
3.507011
 30
0.0
 10
2.670881
 20
6.015161
 30
0.0
 10
2.646080
 20
9.614231
 30
0.0
  0
SPLINE
  5
101
100
AcDbEntity
  8
Layer_1
 62
7
100
AcDbSpline
 70
8
 71
3
 72
8
 73
4
 74
0
 40
0
 40
0
 40
0
 40
0
 40
1
 40
1
 40
1
 40
1
 10
2.646080
 20
9.614231
 30
0.0
 10
2.608300
 20
15.096981
 30
0.0
 10
6.917253
 20
18.841031
 30
0.0
 10
12.691150
 20
18.342381
 30
0.0
  0
SPLINE
  5
102
100
AcDbEntity
  8
Layer_1
 62
7
100
AcDbSpline
 70
8
 71
3
 72
8
 73
4
 74
0
 40
0
 40
0
 40
0
 40
0
 40
1
 40
1
 40
1
 40
1
 10
12.691150
 20
18.342381
 30
0.0
 10
15.196721
 20
18.125991
 30
0.0
 10
15.264181
 20
18.075941
 30
0.0
 10
15.142140
 20
16.523891
 30
0.0
  0
SPLINE
  5
103
100
AcDbEntity
  8
Layer_1
 62
7
100
AcDbSpline
 70
8
 71
3
 72
8
 73
4
 74
0
 40
0
 40
0
 40
0
 40
0
 40
1
 40
1
 40
1
 40
1
 10
15.142140
 20
16.523891
 30
0.0
 10
15.086400
 20
15.814951
 30
0.0
 10
14.999688
 20
15.184691
 30
0.0
 10
14.949459
 20
15.123311
 30
0.0
  0
SPLINE
  5
104
100
AcDbEntity
  8
Layer_1
 62
7
100
AcDbSpline
 70
8
 71
3
 72
8
 73
4
 74
0
 40
0
 40
0
 40
0
 40
0
 40
1
 40
1
 40
1
 40
1
 10
14.949459
 20
15.123311
 30
0.0
 10
14.899229
 20
15.061911
 30
0.0
 10
14.422324
 20
15.134511
 30
0.0
 10
13.889669
 20
15.284531
 30
0.0
  0
SPLINE
  5
105
100
AcDbEntity
  8
Layer_1
 62
7
100
AcDbSpline
 70
8
 71
3
 72
8
 73
4
 74
0
 40
0
 40
0
 40
0
 40
0
 40
1
 40
1
 40
1
 40
1
 10
13.889669
 20
15.284531
 30
0.0
 10
13.357015
 20
15.434581
 30
0.0
 10
12.129643
 20
15.509551
 30
0.0
 10
11.162177
 20
15.451121
 30
0.0
  0
SPLINE
  5
106
100
AcDbEntity
  8
Layer_1
 62
7
100
AcDbSpline
 70
8
 71
3
 72
8
 73
4
 74
0
 40
0
 40
0
 40
0
 40
0
 40
1
 40
1
 40
1
 40
1
 10
11.162177
 20
15.451121
 30
0.0
 10
9.759636
 20
15.366421
 30
0.0
 10
9.147217
 20
15.187481
 30
0.0
 10
8.140322
 20
14.568121
 30
0.0
  0
SPLINE
  5
107
100
AcDbEntity
  8
Layer_1
 62
7
100
AcDbSpline
 70
8
 71
3
 72
8
 73
4
 74
0
 40
0
 40
0
 40
0
 40
0
 40
1
 40
1
 40
1
 40
1
 10
8.140322
 20
14.568121
 30
0.0
 10
6.333686
 20
13.456831
 30
0.0
 10
5.602013
 20
12.227491
 30
0.0
 10
5.492128
 20
10.118701
 30
0.0
  0
SPLINE
  5
108
100
AcDbEntity
  8
Layer_1
 62
7
100
AcDbSpline
 70
8
 71
3
 72
8
 73
4
 74
0
 40
0
 40
0
 40
0
 40
0
 40
1
 40
1
 40
1
 40
1
 10
5.492128
 20
10.118701
 30
0.0
 10
5.329121
 20
6.990431
 30
0.0
 10
6.533118
 20
5.589261
 30
0.0
 10
9.384184
 20
5.589261
 30
0.0
  0
SPLINE
  5
109
100
AcDbEntity
  8
Layer_1
 62
7
100
AcDbSpline
 70
8
 71
3
 72
8
 73
4
 74
0
 40
0
 40
0
 40
0
 40
0
 40
1
 40
1
 40
1
 40
1
 10
9.384184
 20
5.589261
 30
0.0
 10
10.296866
 20
5.589261
 30
0.0
 10
11.091577
 20
5.648761
 30
0.0
 10
11.150209
 20
5.721551
 30
0.0
  0
SPLINE
  5
10a
100
AcDbEntity
  8
Layer_1
 62
7
100
AcDbSpline
 70
8
 71
3
 72
8
 73
4
 74
0
 40
0
 40
0
 40
0
 40
0
 40
1
 40
1
 40
1
 40
1
 10
11.150209
 20
5.721551
 30
0.0
 10
11.208839
 20
5.794351
 30
0.0
 10
11.325705
 20
6.419381
 30
0.0
 10
11.409909
 20
7.110611
 30
0.0
  0
SPLINE
  5
10b
100
AcDbEntity
  8
Layer_1
 62
7
100
AcDbSpline
 70
8
 71
3
 72
8
 73
4
 74
0
 40
0
 40
0
 40
0
 40
0
 40
1
 40
1
 40
1
 40
1
 10
9.351652
 20
9.094981
 30
0.0
 10
9.353352
 20
9.495171
 30
0.0
 10
9.413352
 20
10.090481
 30
0.0
 10
9.485164
 20
10.417901
 30
0.0
  0
LWPOLYLINE
  5
10c
100
AcDbEntity
  8
Layer_1
 62
7
100
AcDbPolyline
 90
5
 70
0
 10
11.409909
 20
7.110611
 30
0.0
 10
11.563005
 20
8.367381
 30
0.0
 10
10.455829
 20
8.367381
 30
0.0
 10
9.348652
 20
8.367381
 30
0.0
 10
9.351652
 20
9.094981
 30
0.0
  0
SPLINE
  5
10d
100
AcDbEntity
  8
Layer_1
 62
7
100
AcDbSpline
 70
8
 71
3
 72
8
 73
4
 74
0
 40
0
 40
0
 40
0
 40
0
 40
1
 40
1
 40
1
 40
1
 10
11.959393
 20
11.013211
 30
0.0
 10
13.248413
 20
11.013211
 30
0.0
 10
14.345076
 20
10.923911
 30
0.0
 10
14.396423
 20
10.814781
 30
0.0
  0
SPLINE
  5
10e
100
AcDbEntity
  8
Layer_1
 62
7
100
AcDbSpline
 70
8
 71
3
 72
8
 73
4
 74
0
 40
0
 40
0
 40
0
 40
0
 40
1
 40
1
 40
1
 40
1
 10
14.396423
 20
10.814781
 30
0.0
 10
14.447773
 20
10.705631
 30
0.0
 10
14.292530
 20
8.925171
 30
0.0
 10
14.051447
 20
6.858201
 30
0.0
  0
LWPOLYLINE
  5
10f
100
AcDbEntity
  8
Layer_1
 62
7
100
AcDbPolyline
 90
3
 70
0
 10
9.485164
 20
10.417901
 30
0.0
 10
9.615721
 20
11.013211
 30
0.0
 10
11.959393
 20
11.013211
 30
0.0
  0
SPLINE
  5
110
100
AcDbEntity
  8
Layer_1
 62
7
100
AcDbSpline
 70
8
 71
3
 72
8
 73
4
 74
0
 40
0
 40
0
 40
0
 40
0
 40
1
 40
1
 40
1
 40
1
 10
13.050665
 20
2.967341
 30
0.0
 10
11.854326
 20
2.685041
 30
0.0
 10
8.758283
 20
2.593721
 30
0.0
 10
7.757390
 20
2.811221
 30
0.0
  0
LWPOLYLINE
  5
111
100
AcDbEntity
  8
Layer_1
 62
7
100
AcDbPolyline
 90
3
 70
0
 10
14.051447
 20
6.858201
 30
0.0
 10
13.613115
 20
3.100061
 30
0.0
 10
13.050665
 20
2.967341
 30
0.0
  0
SPLINE
  5
112
100
AcDbEntity
  8
Layer_1
 62
7
100
AcDbSpline
 70
8
 71
3
 72
8
 73
4
 74
0
 40
0
 40
0
 40
0
 40
0
 40
1
 40
1
 40
1
 40
1
 10
22.099477
 20
9.359571
 30
0.0
 10
22.061707
 20
11.123411
 30
0.0
 10
21.501186
 20
15.122601
 30
0.0
 10
21.331519
 20
14.838741
 30
0.0
  0
SPLINE
  5
113
100
AcDbEntity
  8
Layer_1
 62
7
100
AcDbSpline
 70
8
 71
3
 72
8
 73
4
 74
0
 40
0
 40
0
 40
0
 40
0
 40
1
 40
1
 40
1
 40
1
 10
21.331519
 20
14.838741
 30
0.0
 10
21.240939
 20
14.687201
 30
0.0
 10
20.893471
 20
13.794241
 30
0.0
 10
20.559351
 20
12.854361
 30
0.0
  0
SPLINE
  5
114
100
AcDbEntity
  8
Layer_1
 62
7
100
AcDbSpline
 70
8
 71
3
 72
8
 73
4
 74
0
 40
0
 40
0
 40
0
 40
0
 40
1
 40
1
 40
1
 40
1
 10
20.559351
 20
12.854361
 30
0.0
 10
20.225230
 20
11.914491
 30
0.0
 10
19.729043
 20
10.515901
 30
0.0
 10
19.433663
 20
9.756441
 30
0.0
  0
LWPOLYLINE
  5
115
100
AcDbEntity
  8
Layer_1
 62
7
100
AcDbPolyline
 90
1
 70
1
 10
7.757390
 20
2.811221
 30
0.0
  0
SPLINE
  5
116
100
AcDbEntity
  8
Layer_1
 62
7
100
AcDbSpline
 70
8
 71
3
 72
8
 73
4
 74
0
 40
0
 40
0
 40
0
 40
0
 40
1
 40
1
 40
1
 40
1
 10
16.356267
 20
9.624151
 30
0.0
 10
18.064767
 20
13.371311
 30
0.0
 10
19.643295
 20
16.879191
 30
0.0
 10
19.840707
 20
17.429361
 30
0.0
  0
LWPOLYLINE
  5
117
100
AcDbEntity
  8
Layer_1
 62
7
100
AcDbPolyline
 90
5
 70
0
 10
19.433663
 20
9.756441
 30
0.0
 10
18.915467
 20
8.367381
 30
0.0
 10
20.518093
 20
8.367381
 30
0.0
 10
22.120721
 20
8.367381
 30
0.0
 10
22.099477
 20
9.359571
 30
0.0
  0
SPLINE
  5
118
100
AcDbEntity
  8
Layer_1
 62
7
100
AcDbSpline
 70
8
 71
3
 72
8
 73
4
 74
0
 40
0
 40
0
 40
0
 40
0
 40
1
 40
1
 40
1
 40
1
 10
21.911093
 20
18.421551
 30
0.0
 10
22.841860
 20
18.421551
 30
0.0
 10
22.980100
 20
18.418551
 30
0.0
 10
23.531691
 20
18.418551
 30
0.0
  0
SPLINE
  5
119
100
AcDbEntity
  8
Layer_1
 62
7
100
AcDbSpline
 70
8
 71
3
 72
8
 73
4
 74
0
 40
0
 40
0
 40
0
 40
0
 40
1
 40
1
 40
1
 40
1
 10
23.531691
 20
18.418551
 30
0.0
 10
23.603401
 20
18.090581
 30
0.0
 10
25.739943
 20
4.674731
 30
0.0
 10
25.967832
 20
3.538731
 30
0.0
  0
LWPOLYLINE
  5
11a
100
AcDbEntity
  8
Layer_1
 62
7
100
AcDbPolyline
 90
3
 70
0
 10
19.840707
 20
17.429361
 30
0.0
 10
20.218788
 20
18.421551
 30
0.0
 10
21.911093
 20
18.421551
 30
0.0
  0
SPLINE
  5
11b
100
AcDbEntity
  8
Layer_1
 62
7
100
AcDbSpline
 70
8
 71
3
 72
8
 73
4
 74
0
 40
0
 40
0
 40
0
 40
0
 40
1
 40
1
 40
1
 40
1
 10
24.747501
 20
2.864651
 30
0.0
 10
24.750601
 20
2.907951
 30
0.0
 10
25.785795
 20
6.336701
 30
0.0
 10
27.047953
 20
10.484051
 30
0.0
  0
LWPOLYLINE
  5
11c
100
AcDbEntity
  8
Layer_1
 62
7
100
AcDbPolyline
 90
13
 70
0
 10
25.967832
 20
3.538731
 30
0.0
 10
26.113795
 20
2.811121
 30
0.0
 10
24.522411
 20
2.811121
 30
0.0
 10
22.931027
 20
2.811121
 30
0.0
 10
22.711209
 20
4.464771
 30
0.0
 10
22.491390
 20
6.118411
 30
0.0
 10
20.246380
 20
6.193911
 30
0.0
 10
18.001370
 20
6.269411
 30
0.0
 10
17.315000
 20
4.540271
 30
0.0
 10
16.628630
 20
2.811131
 30
0.0
 10
14.939268
 20
2.811131
 30
0.0
 10
13.249907
 20
2.811131
 30
0.0
 10
16.356267
 20
9.624151
 30
0.0
  0
SPLINE
  5
11d
100
AcDbEntity
  8
Layer_1
 62
7
100
AcDbSpline
 70
8
 71
3
 72
8
 73
4
 74
0
 40
0
 40
0
 40
0
 40
0
 40
1
 40
1
 40
1
 40
1
 10
29.408974
 20
18.190041
 30
0.0
 10
30.999720
 20
18.195041
 30
0.0
 10
31.361347
 20
18.187041
 30
0.0
 10
32.787573
 20
18.177841
 30
0.0
  0
SPLINE
  5
11e
100
AcDbEntity
  8
Layer_1
 62
7
100
AcDbSpline
 70
8
 71
3
 72
8
 73
4
 74
0
 40
0
 40
0
 40
0
 40
0
 40
1
 40
1
 40
1
 40
1
 10
32.787573
 20
18.177841
 30
0.0
 10
33.732381
 20
14.369821
 30
0.0
 10
34.780938
 20
10.276831
 30
0.0
 10
35.177356
 20
8.934131
 30
0.0
  0
SPLINE
  5
11f
100
AcDbEntity
  8
Layer_1
 62
7
100
AcDbSpline
 70
8
 71
3
 72
8
 73
4
 74
0
 40
0
 40
0
 40
0
 40
0
 40
1
 40
1
 40
1
 40
1
 10
35.177356
 20
8.934131
 30
0.0
 10
35.332886
 20
9.161871
 30
0.0
 10
36.526642
 20
11.394911
 30
0.0
 10
37.720501
 20
13.794371
 30
0.0
  0
LWPOLYLINE
  5
120
100
AcDbEntity
  8
Layer_1
 62
7
100
AcDbPolyline
 90
2
 70
0
 10
27.047953
 20
10.484051
 30
0.0
 10
29.408974
 20
18.190041
 30
0.0
  0
SPLINE
  5
121
100
AcDbEntity
  8
Layer_1
 62
7
100
AcDbSpline
 70
8
 71
3
 72
8
 73
4
 74
0
 40
0
 40
0
 40
0
 40
0
 40
1
 40
1
 40
1
 40
1
 10
39.891155
 20
18.157011
 30
0.0
 10
40.993671
 20
18.157011
 30
0.0
 10
42.096187
 20
18.157011
 30
0.0
 10
43.198704
 20
18.157011
 30
0.0
  0
LWPOLYLINE
  5
122
100
AcDbEntity
  8
Layer_1
 62
7
100
AcDbPolyline
 90
2
 70
0
 10
37.720501
 20
13.794371
 30
0.0
 10
39.891155
 20
18.157011
 30
0.0
  0
SPLINE
  5
123
100
AcDbEntity
  8
Layer_1
 62
7
100
AcDbSpline
 70
8
 71
3
 72
8
 73
4
 74
0
 40
0
 40
0
 40
0
 40
0
 40
1
 40
1
 40
1
 40
1
 10
43.364163
 20
13.725241
 30
0.0
 10
43.455163
 20
11.287771
 30
0.0
 10
43.600558
 20
7.834951
 30
0.0
 10
43.687256
 20
6.052331
 30
0.0
  0
LWPOLYLINE
  5
124
100
AcDbEntity
  8
Layer_1
 62
7
100
AcDbPolyline
 90
2
 70
0
 10
43.198704
 20
18.157011
 30
0.0
 10
43.364163
 20
13.725241
 30
0.0
  0
SPLINE
  5
125
100
AcDbEntity
  8
Layer_1
 62
7
100
AcDbSpline
 70
8
 71
3
 72
8
 73
4
 74
0
 40
0
 40
0
 40
0
 40
0
 40
1
 40
1
 40
1
 40
1
 10
40.676835
 20
7.990471
 30
0.0
 10
40.577075
 20
10.839081
 30
0.0
 10
40.410628
 20
13.071501
 30
0.0
 10
40.306949
 20
12.951411
 30
0.0
  0
SPLINE
  5
126
100
AcDbEntity
  8
Layer_1
 62
7
100
AcDbSpline
 70
8
 71
3
 72
8
 73
4
 74
0
 40
0
 40
0
 40
0
 40
0
 40
1
 40
1
 40
1
 40
1
 10
40.306949
 20
12.951411
 30
0.0
 10
40.203270
 20
12.831311
 30
0.0
 10
38.980279
 20
10.500631
 30
0.0
 10
37.589192
 20
7.772121
 30
0.0
  0
LWPOLYLINE
  5
127
100
AcDbEntity
  8
Layer_1
 62
7
100
AcDbPolyline
 90
5
 70
0
 10
43.687256
 20
6.052331
 30
0.0
 10
43.844889
 20
2.811181
 30
0.0
 10
42.351550
 20
2.811181
 30
0.0
 10
40.858211
 20
2.811181
 30
0.0
 10
40.676835
 20
7.990471
 30
0.0
  0
SPLINE
  5
128
100
AcDbEntity
  8
Layer_1
 62
7
100
AcDbSpline
 70
8
 71
3
 72
8
 73
4
 74
0
 40
0
 40
0
 40
0
 40
0
 40
1
 40
1
 40
1
 40
1
 10
33.416137
 20
3.803371
 30
0.0
 10
33.283664
 20
4.349071
 30
0.0
 10
32.701400
 20
6.749031
 30
0.0
 10
32.122214
 20
9.136611
 30
0.0
  0
SPLINE
  5
129
100
AcDbEntity
  8
Layer_1
 62
7
100
AcDbSpline
 70
8
 71
3
 72
8
 73
4
 74
0
 40
0
 40
0
 40
0
 40
0
 40
1
 40
1
 40
1
 40
1
 10
32.122214
 20
9.136611
 30
0.0
 10
31.543026
 20
11.524191
 30
0.0
 10
31.014660
 20
13.310131
 30
0.0
 10
30.948065
 20
13.105361
 30
0.0
  0
SPLINE
  5
12a
100
AcDbEntity
  8
Layer_1
 62
7
100
AcDbSpline
 70
8
 71
3
 72
8
 73
4
 74
0
 40
0
 40
0
 40
0
 40
0
 40
1
 40
1
 40
1
 40
1
 10
30.948065
 20
13.105361
 30
0.0
 10
30.881475
 20
12.900591
 30
0.0
 10
30.146267
 20
10.530401
 30
0.0
 10
29.314279
 20
7.838261
 30
0.0
  0
LWPOLYLINE
  5
12b
100
AcDbEntity
  8
Layer_1
 62
7
100
AcDbPolyline
 90
5
 70
0
 10
37.589192
 20
7.772121
 30
0.0
 10
35.059943
 20
2.811181
 30
0.0
 10
34.358467
 20
2.811181
 30
0.0
 10
33.656993
 20
2.811181
 30
0.0
 10
33.416137
 20
3.803371
 30
0.0
  0
SPLINE
  5
12c
100
AcDbEntity
  8
Layer_1
 62
7
100
AcDbSpline
 70
8
 71
3
 72
8
 73
4
 74
0
 40
0
 40
0
 40
0
 40
0
 40
1
 40
1
 40
1
 40
1
 10
26.404339
 20
2.814541
 30
0.0
 10
25.500519
 20
2.804541
 30
0.0
 10
24.744410
 20
2.821541
 30
0.0
 10
24.747501
 20
2.864641
 30
0.0
  0
LWPOLYLINE
  5
12d
100
AcDbEntity
  8
Layer_1
 62
7
100
AcDbPolyline
 90
3
 70
0
 10
29.314279
 20
7.838261
 30
0.0
 10
27.785971
 20
2.826541
 30
0.0
 10
26.404339
 20
2.814541
 30
0.0
  0
SPLINE
  5
12e
100
AcDbEntity
  8
Layer_1
 62
7
100
AcDbSpline
 70
8
 71
3
 72
8
 73
4
 74
0
 40
0
 40
0
 40
0
 40
0
 40
1
 40
1
 40
1
 40
1
 10
43.834773
 20
2.808751
 30
0.0
 10
43.834926
 20
3.060911
 30
0.0
 10
45.602829
 20
16.133751
 30
0.0
 10
45.785668
 20
17.285231
 30
0.0
  0
LWPOLYLINE
  5
12f
100
AcDbEntity
  8
Layer_1
 62
7
100
AcDbPolyline
 90
1
 70
1
 10
24.747501
 20
2.864641
 30
0.0
  0
SPLINE
  5
130
100
AcDbEntity
  8
Layer_1
 62
7
100
AcDbSpline
 70
8
 71
3
 72
8
 73
4
 74
0
 40
0
 40
0
 40
0
 40
0
 40
1
 40
1
 40
1
 40
1
 10
50.359039
 20
18.145131
 30
0.0
 10
55.181299
 20
18.145131
 30
0.0
 10
53.196949
 20
18.106131
 30
0.0
 10
54.747310
 20
18.120531
 30
0.0
  0
LWPOLYLINE
  5
131
100
AcDbEntity
  8
Layer_1
 62
7
100
AcDbPolyline
 90
3
 70
0
 10
45.785668
 20
17.285231
 30
0.0
 10
45.922208
 20
18.145131
 30
0.0
 10
50.359039
 20
18.145131
 30
0.0
  0
SPLINE
  5
132
100
AcDbEntity
  8
Layer_1
 62
7
100
AcDbSpline
 70
8
 71
3
 72
8
 73
4
 74
0
 40
0
 40
0
 40
0
 40
0
 40
1
 40
1
 40
1
 40
1
 10
48.527357
 20
15.036221
 30
0.0
 10
48.455877
 20
14.636041
 30
0.0
 10
48.326066
 20
13.802601
 30
0.0
 10
48.238890
 20
13.184141
 30
0.0
  0
LWPOLYLINE
  5
133
100
AcDbEntity
  8
Layer_1
 62
7
100
AcDbPolyline
 90
5
 70
0
 10
54.747310
 20
18.120531
 30
0.0
 10
54.354600
 20
15.763831
 30
0.0
 10
51.572152
 20
15.763831
 30
0.0
 10
48.657321
 20
15.763831
 30
0.0
 10
48.527357
 20
15.036221
 30
0.0
  0
SPLINE
  5
134
100
AcDbEntity
  8
Layer_1
 62
7
100
AcDbSpline
 70
8
 71
3
 72
8
 73
4
 74
0
 40
0
 40
0
 40
0
 40
0
 40
1
 40
1
 40
1
 40
1
 10
53.374973
 20
12.059661
 30
0.0
 10
53.256153
 20
11.178801
 30
0.0
 10
53.167491
 20
10.307551
 30
0.0
 10
53.066082
 20
9.413831
 30
0.0
  0
LWPOLYLINE
  5
135
100
AcDbEntity
  8
Layer_1
 62
7
100
AcDbPolyline
 90
4
 70
0
 10
48.238890
 20
13.184141
 30
0.0
 10
48.080385
 20
12.059661
 30
0.0
 10
50.727679
 20
12.059661
 30
0.0
 10
53.374973
 20
12.059661
 30
0.0
  0
SPLINE
  5
136
100
AcDbEntity
  8
Layer_1
 62
7
100
AcDbSpline
 70
8
 71
3
 72
8
 73
4
 74
0
 40
0
 40
0
 40
0
 40
0
 40
1
 40
1
 40
1
 40
1
 10
50.485983
 20
9.413831
 30
0.0
 10
49.066928
 20
9.413831
 30
0.0
 10
48.315324
 20
9.382431
 30
0.0
 10
47.777290
 20
9.382431
 30
0.0
  0
SPLINE
  5
137
100
AcDbEntity
  8
Layer_1
 62
7
100
AcDbSpline
 70
8
 71
3
 72
8
 73
4
 74
0
 40
0
 40
0
 40
0
 40
0
 40
1
 40
1
 40
1
 40
1
 10
47.777290
 20
9.382431
 30
0.0
 10
47.676140
 20
8.688631
 30
0.0
 10
47.600027
 20
8.213271
 30
0.0
 10
47.502405
 20
7.231011
 30
0.0
  0
LWPOLYLINE
  5
138
100
AcDbEntity
  8
Layer_1
 62
7
100
AcDbPolyline
 90
2
 70
0
 10
53.066082
 20
9.413831
 30
0.0
 10
50.485983
 20
9.413831
 30
0.0
  0
SPLINE
  5
139
100
AcDbEntity
  8
Layer_1
 62
7
100
AcDbSpline
 70
8
 71
3
 72
8
 73
4
 74
0
 40
0
 40
0
 40
0
 40
0
 40
1
 40
1
 40
1
 40
1
 10
53.066082
 20
5.445081
 30
0.0
 10
52.957776
 20
4.356581
 30
0.0
 10
52.871131
 20
3.632331
 30
0.0
 10
52.766092
 20
2.799241
 30
0.0
  0
LWPOLYLINE
  5
13a
100
AcDbEntity
  8
Layer_1
 62
7
100
AcDbPolyline
 90
4
 70
0
 10
47.502405
 20
7.231011
 30
0.0
 10
47.324913
 20
5.445081
 30
0.0
 10
50.936835
 20
5.445081
 30
0.0
 10
53.066082
 20
5.445081
 30
0.0
  0
SPLINE
  5
13b
100
AcDbEntity
  8
Layer_1
 62
7
100
AcDbSpline
 70
8
 71
3
 72
8
 73
4
 74
0
 40
0
 40
0
 40
0
 40
0
 40
1
 40
1
 40
1
 40
1
 10
49.085839
 20
2.799241
 30
0.0
 10
46.246229
 20
2.799241
 30
0.0
 10
44.132568
 20
2.799951
 30
0.0
 10
43.834773
 20
2.808241
 30
0.0
  0
LWPOLYLINE
  5
13c
100
AcDbEntity
  8
Layer_1
 62
7
100
AcDbPolyline
 90
2
 70
0
 10
52.766092
 20
2.799241
 30
0.0
 10
49.085839
 20
2.799241
 30
0.0
  0
SPLINE
  5
13d
100
AcDbEntity
  8
Layer_1
 62
7
100
AcDbSpline
 70
8
 71
3
 72
8
 73
4
 74
0
 40
0
 40
0
 40
0
 40
0
 40
1
 40
1
 40
1
 40
1
 10
76.482351
 20
2.814681
 30
0.0
 10
76.521121
 20
3.096371
 30
0.0
 10
78.189731
 20
16.145581
 30
0.0
 10
78.372570
 20
17.297071
 30
0.0
  0
LWPOLYLINE
  5
13e
100
AcDbEntity
  8
Layer_1
 62
7
100
AcDbPolyline
 90
2
 70
0
 10
43.834773
 20
2.808241
 30
0.0
 10
43.834773
 20
2.808751
 30
0.0
  0
SPLINE
  5
13f
100
AcDbEntity
  8
Layer_1
 62
7
100
AcDbSpline
 70
8
 71
3
 72
8
 73
4
 74
0
 40
0
 40
0
 40
0
 40
0
 40
1
 40
1
 40
1
 40
1
 10
79.980588
 20
18.156961
 30
0.0
 10
80.789900
 20
18.156961
 30
0.0
 10
81.270041
 20
18.150961
 30
0.0
 10
81.490678
 20
18.150961
 30
0.0
  0
SPLINE
  5
140
100
AcDbEntity
  8
Layer_1
 62
7
100
AcDbSpline
 70
8
 71
3
 72
8
 73
4
 74
0
 40
0
 40
0
 40
0
 40
0
 40
1
 40
1
 40
1
 40
1
 10
81.490678
 20
18.150961
 30
0.0
 10
80.728802
 20
13.124411
 30
0.0
 10
80.066044
 20
7.850981
 30
0.0
 10
79.435897
 20
2.810891
 30
0.0
  0
LWPOLYLINE
  5
141
100
AcDbEntity
  8
Layer_1
 62
7
100
AcDbPolyline
 90
3
 70
0
 10
78.372570
 20
17.297071
 30
0.0
 10
78.509110
 20
18.156961
 30
0.0
 10
79.980588
 20
18.156961
 30
0.0
  0
SPLINE
  5
142
100
AcDbEntity
  8
Layer_1
 62
7
100
AcDbSpline
 70
8
 71
3
 72
8
 73
4
 74
0
 40
0
 40
0
 40
0
 40
0
 40
1
 40
1
 40
1
 40
1
 10
77.972853
 20
2.810891
 30
0.0
 10
77.168182
 20
2.810891
 30
0.0
 10
76.769236
 20
2.814891
 30
0.0
 10
76.482351
 20
2.814891
 30
0.0
  0
LWPOLYLINE
  5
143
100
AcDbEntity
  8
Layer_1
 62
7
100
AcDbPolyline
 90
2
 70
0
 10
79.435897
 20
2.810891
 30
0.0
 10
77.972853
 20
2.810891
 30
0.0
  0
LWPOLYLINE
  5
144
100
AcDbEntity
  8
Layer_1
 62
7
100
AcDbPolyline
 90
2
 70
0
 10
76.482351
 20
2.814891
 30
0.0
 10
76.482351
 20
2.814681
 30
0.0
  0
SPLINE
  5
145
100
AcDbEntity
  8
Layer_1
 62
7
100
AcDbSpline
 70
8
 71
3
 72
8
 73
4
 74
0
 40
0
 40
0
 40
0
 40
0
 40
1
 40
1
 40
1
 40
1
 10
112.323664
 20
18.157001
 30
0.0
 10
113.132984
 20
18.157001
 30
0.0
 10
113.625284
 20
18.153001
 30
0.0
 10
113.888914
 20
18.153001
 30
0.0
  0
SPLINE
  5
146
100
AcDbEntity
  8
Layer_1
 62
7
100
AcDbSpline
 70
8
 71
3
 72
8
 73
4
 74
0
 40
0
 40
0
 40
0
 40
0
 40
1
 40
1
 40
1
 40
1
 10
113.888914
 20
18.153001
 30
0.0
 10
113.845214
 20
17.804081
 30
0.0
 10
113.497424
 20
15.194211
 30
0.0
 10
113.053814
 20
12.071331
 30
0.0
  0
SPLINE
  5
147
100
AcDbEntity
  8
Layer_1
 62
7
100
AcDbSpline
 70
8
 71
3
 72
8
 73
4
 74
0
 40
0
 40
0
 40
0
 40
0
 40
1
 40
1
 40
1
 40
1
 10
113.053814
 20
12.071331
 30
0.0
 10
112.707054
 20
9.630271
 30
0.0
 10
112.382904
 20
7.691651
 30
0.0
 10
112.069774
 20
5.456751
 30
0.0
  0
LWPOLYLINE
  5
148
100
AcDbEntity
  8
Layer_1
 62
7
100
AcDbPolyline
 90
3
 70
0
 10
110.715654
 20
17.297111
 30
0.0
 10
110.852194
 20
18.157001
 30
0.0
 10
112.323664
 20
18.157001
 30
0.0
  0
SPLINE
  5
149
100
AcDbEntity
  8
Layer_1
 62
7
100
AcDbSpline
 70
8
 71
3
 72
8
 73
4
 74
0
 40
0
 40
0
 40
0
 40
0
 40
1
 40
1
 40
1
 40
1
 10
118.795033
 20
5.456751
 30
0.0
 10
118.663853
 20
4.347931
 30
0.0
 10
118.588153
 20
3.745181
 30
0.0
 10
118.489923
 20
2.810911
 30
0.0
  0
LWPOLYLINE
  5
14a
100
AcDbEntity
  8
Layer_1
 62
7
100
AcDbPolyline
 90
3
 70
0
 10
112.069774
 20
5.456751
 30
0.0
 10
115.553754
 20
5.456751
 30
0.0
 10
118.795033
 20
5.456751
 30
0.0
  0
SPLINE
  5
14b
100
AcDbEntity
  8
Layer_1
 62
7
100
AcDbSpline
 70
8
 71
3
 72
8
 73
4
 74
0
 40
0
 40
0
 40
0
 40
0
 40
1
 40
1
 40
1
 40
1
 10
113.671224
 20
2.810911
 30
0.0
 10
111.020944
 20
2.810911
 30
0.0
 10
109.073484
 20
2.808911
 30
0.0
 10
108.816124
 20
2.809911
 30
0.0
  0
SPLINE
  5
14c
100
AcDbEntity
  8
Layer_1
 62
7
100
AcDbSpline
 70
8
 71
3
 72
8
 73
4
 74
0
 40
0
 40
0
 40
0
 40
0
 40
1
 40
1
 40
1
 40
1
 10
108.816124
 20
2.809911
 30
0.0
 10
109.431114
 20
7.662141
 30
0.0
 10
109.994754
 20
12.505231
 30
0.0
 10
110.715654
 20
17.297231
 30
0.0
  0
LWPOLYLINE
  5
14d
100
AcDbEntity
  8
Layer_1
 62
7
100
AcDbPolyline
 90
2
 70
0
 10
118.489923
 20
2.810911
 30
0.0
 10
113.671224
 20
2.810911
 30
0.0
  0
SPLINE
  5
14e
100
AcDbEntity
  8
Layer_1
 62
7
100
AcDbSpline
 70
8
 71
3
 72
8
 73
4
 74
0
 40
0
 40
0
 40
0
 40
0
 40
1
 40
1
 40
1
 40
1
 10
141.156643
 20
9.359611
 30
0.0
 10
141.118943
 20
11.123451
 30
0.0
 10
140.558353
 20
15.122641
 30
0.0
 10
140.388683
 20
14.838781
 30
0.0
  0
SPLINE
  5
14f
100
AcDbEntity
  8
Layer_1
 62
7
100
AcDbSpline
 70
8
 71
3
 72
8
 73
4
 74
0
 40
0
 40
0
 40
0
 40
0
 40
1
 40
1
 40
1
 40
1
 10
140.388683
 20
14.838781
 30
0.0
 10
140.298083
 20
14.687251
 30
0.0
 10
139.950633
 20
13.794281
 30
0.0
 10
139.616513
 20
12.854401
 30
0.0
  0
SPLINE
  5
150
100
AcDbEntity
  8
Layer_1
 62
7
100
AcDbSpline
 70
8
 71
3
 72
8
 73
4
 74
0
 40
0
 40
0
 40
0
 40
0
 40
1
 40
1
 40
1
 40
1
 10
139.616513
 20
12.854401
 30
0.0
 10
139.282403
 20
11.914531
 30
0.0
 10
138.775833
 20
10.520471
 30
0.0
 10
138.490833
 20
9.756481
 30
0.0
  0
LWPOLYLINE
  5
151
100
AcDbEntity
  8
Layer_1
 62
7
100
AcDbPolyline
 90
2
 70
0
 10
110.715654
 20
17.297231
 30
0.0
 10
110.715654
 20
17.297111
 30
0.0
  0
SPLINE
  5
152
100
AcDbEntity
  8
Layer_1
 62
7
100
AcDbSpline
 70
8
 71
3
 72
8
 73
4
 74
0
 40
0
 40
0
 40
0
 40
0
 40
1
 40
1
 40
1
 40
1
 10
135.413433
 20
9.624191
 30
0.0
 10
137.121933
 20
13.371351
 30
0.0
 10
138.689923
 20
16.883701
 30
0.0
 10
138.897873
 20
17.429401
 30
0.0
  0
LWPOLYLINE
  5
153
100
AcDbEntity
  8
Layer_1
 62
7
100
AcDbPolyline
 90
6
 70
0
 10
138.490833
 20
9.756481
 30
0.0
 10
137.972623
 20
8.367421
 30
0.0
 10
139.575253
 20
8.367421
 30
0.0
 10
141.177893
 20
8.367421
 30
0.0
 10
141.156593
 20
9.359611
 30
0.0
 10
141.156643
 20
9.359611
 30
0.0
  0
SPLINE
  5
154
100
AcDbEntity
  8
Layer_1
 62
7
100
AcDbSpline
 70
8
 71
3
 72
8
 73
4
 74
0
 40
0
 40
0
 40
0
 40
0
 40
1
 40
1
 40
1
 40
1
 10
140.968263
 20
18.421591
 30
0.0
 10
141.899033
 20
18.421591
 30
0.0
 10
142.660563
 20
18.311281
 30
0.0
 10
142.660563
 20
18.176461
 30
0.0
  0
SPLINE
  5
155
100
AcDbEntity
  8
Layer_1
 62
7
100
AcDbSpline
 70
8
 71
3
 72
8
 73
4
 74
0
 40
0
 40
0
 40
0
 40
0
 40
1
 40
1
 40
1
 40
1
 10
142.660563
 20
18.176461
 30
0.0
 10
142.660563
 20
17.901641
 30
0.0
 10
144.797103
 20
4.674781
 30
0.0
 10
145.024993
 20
3.538781
 30
0.0
  0
LWPOLYLINE
  5
156
100
AcDbEntity
  8
Layer_1
 62
7
100
AcDbPolyline
 90
3
 70
0
 10
138.897873
 20
17.429401
 30
0.0
 10
139.275953
 20
18.421591
 30
0.0
 10
140.968263
 20
18.421591
 30
0.0
  0
SPLINE
  5
157
100
AcDbEntity
  8
Layer_1
 62
7
100
AcDbSpline
 70
8
 71
3
 72
8
 73
4
 74
0
 40
0
 40
0
 40
0
 40
0
 40
1
 40
1
 40
1
 40
1
 10
210.252561
 20
9.194271
 30
0.0
 10
210.214861
 20
10.958111
 30
0.0
 10
209.654271
 20
14.957301
 30
0.0
 10
209.484601
 20
14.673441
 30
0.0
  0
SPLINE
  5
158
100
AcDbEntity
  8
Layer_1
 62
7
100
AcDbSpline
 70
8
 71
3
 72
8
 73
4
 74
0
 40
0
 40
0
 40
0
 40
0
 40
1
 40
1
 40
1
 40
1
 10
209.484601
 20
14.673441
 30
0.0
 10
209.394001
 20
14.521911
 30
0.0
 10
209.046561
 20
13.628941
 30
0.0
 10
208.712431
 20
12.689071
 30
0.0
  0
SPLINE
  5
159
100
AcDbEntity
  8
Layer_1
 62
7
100
AcDbSpline
 70
8
 71
3
 72
8
 73
4
 74
0
 40
0
 40
0
 40
0
 40
0
 40
1
 40
1
 40
1
 40
1
 10
208.712431
 20
12.689071
 30
0.0
 10
208.378321
 20
11.749191
 30
0.0
 10
207.871761
 20
10.355131
 30
0.0
 10
207.586751
 20
9.591141
 30
0.0
  0
LWPOLYLINE
  5
15a
100
AcDbEntity
  8
Layer_1
 62
7
100
AcDbPolyline
 90
13
 70
0
 10
145.024993
 20
3.538781
 30
0.0
 10
145.170953
 20
2.811171
 30
0.0
 10
143.579573
 20
2.811171
 30
0.0
 10
141.988203
 20
2.811171
 30
0.0
 10
141.768373
 20
4.464821
 30
0.0
 10
141.548553
 20
6.118461
 30
0.0
 10
139.303543
 20
6.193961
 30
0.0
 10
137.058533
 20
6.269461
 30
0.0
 10
136.372163
 20
4.540321
 30
0.0
 10
135.685793
 20
2.811181
 30
0.0
 10
133.996443
 20
2.811181
 30
0.0
 10
132.307073
 20
2.811181
 30
0.0
 10
135.413433
 20
9.624191
 30
0.0
  0
SPLINE
  5
15b
100
AcDbEntity
  8
Layer_1
 62
7
100
AcDbSpline
 70
8
 71
3
 72
8
 73
4
 74
0
 40
0
 40
0
 40
0
 40
0
 40
1
 40
1
 40
1
 40
1
 10
204.509361
 20
9.458851
 30
0.0
 10
206.217851
 20
13.206011
 30
0.0
 10
207.785851
 20
16.718361
 30
0.0
 10
207.993791
 20
17.264061
 30
0.0
  0
LWPOLYLINE
  5
15c
100
AcDbEntity
  8
Layer_1
 62
7
100
AcDbPolyline
 90
6
 70
0
 10
207.586751
 20
9.591141
 30
0.0
 10
207.068551
 20
8.202081
 30
0.0
 10
208.671181
 20
8.202081
 30
0.0
 10
210.273811
 20
8.202081
 30
0.0
 10
210.252511
 20
9.194271
 30
0.0
 10
210.252561
 20
9.194271
 30
0.0
  0
SPLINE
  5
15d
100
AcDbEntity
  8
Layer_1
 62
7
100
AcDbSpline
 70
8
 71
3
 72
8
 73
4
 74
0
 40
0
 40
0
 40
0
 40
0
 40
1
 40
1
 40
1
 40
1
 10
210.064181
 20
18.256251
 30
0.0
 10
210.994941
 20
18.256251
 30
0.0
 10
211.756481
 20
18.145941
 30
0.0
 10
211.756481
 20
18.011121
 30
0.0
  0
SPLINE
  5
15e
100
AcDbEntity
  8
Layer_1
 62
7
100
AcDbSpline
 70
8
 71
3
 72
8
 73
4
 74
0
 40
0
 40
0
 40
0
 40
0
 40
1
 40
1
 40
1
 40
1
 10
211.756481
 20
18.011121
 30
0.0
 10
211.756481
 20
17.736311
 30
0.0
 10
213.893021
 20
4.509441
 30
0.0
 10
214.120901
 20
3.373441
 30
0.0
  0
LWPOLYLINE
  5
15f
100
AcDbEntity
  8
Layer_1
 62
7
100
AcDbPolyline
 90
3
 70
0
 10
207.993791
 20
17.264061
 30
0.0
 10
208.371871
 20
18.256251
 30
0.0
 10
210.064181
 20
18.256251
 30
0.0
  0
LWPOLYLINE
  5
160
100
AcDbEntity
  8
Layer_1
 62
7
100
AcDbPolyline
 90
13
 70
0
 10
214.120901
 20
3.373441
 30
0.0
 10
214.266871
 20
2.645831
 30
0.0
 10
212.675491
 20
2.645831
 30
0.0
 10
211.084111
 20
2.645831
 30
0.0
 10
210.864291
 20
4.299481
 30
0.0
 10
210.644471
 20
5.953131
 30
0.0
 10
208.399461
 20
6.028631
 30
0.0
 10
206.154461
 20
6.104131
 30
0.0
 10
205.468091
 20
4.374981
 30
0.0
 10
204.781711
 20
2.645841
 30
0.0
 10
203.092361
 20
2.645841
 30
0.0
 10
201.402991
 20
2.645841
 30
0.0
 10
204.509361
 20
9.458851
 30
0.0
  0
SPLINE
  5
161
100
AcDbEntity
  8
Layer_1
 62
7
100
AcDbSpline
 70
8
 71
3
 72
8
 73
4
 74
0
 40
0
 40
0
 40
0
 40
0
 40
1
 40
1
 40
1
 40
1
 10
221.981411
 20
13.083051
 30
0.0
 10
223.527311
 20
10.386611
 30
0.0
 10
224.845251
 20
8.237291
 30
0.0
 10
224.910161
 20
8.306791
 30
0.0
  0
SPLINE
  5
162
100
AcDbEntity
  8
Layer_1
 62
7
100
AcDbSpline
 70
8
 71
3
 72
8
 73
4
 74
0
 40
0
 40
0
 40
0
 40
0
 40
1
 40
1
 40
1
 40
1
 10
224.910161
 20
8.306791
 30
0.0
 10
225.017011
 20
8.421211
 30
0.0
 10
226.187981
 20
16.875401
 30
0.0
 10
226.205871
 20
17.661731
 30
0.0
  0
SPLINE
  5
163
100
AcDbEntity
  8
Layer_1
 62
7
100
AcDbSpline
 70
8
 71
3
 72
8
 73
4
 74
0
 40
0
 40
0
 40
0
 40
0
 40
1
 40
1
 40
1
 40
1
 10
226.205871
 20
17.661731
 30
0.0
 10
226.211871
 20
17.888671
 30
0.0
 10
226.678701
 20
17.992461
 30
0.0
 10
227.696091
 20
17.992461
 30
0.0
  0
LWPOLYLINE
  5
164
100
AcDbEntity
  8
Layer_1
 62
7
100
AcDbPolyline
 90
5
 70
0
 10
215.967641
 20
17.131781
 30
0.0
 10
216.104171
 20
17.991681
 30
0.0
 10
217.637431
 20
17.988681
 30
0.0
 10
219.170691
 20
17.985681
 30
0.0
 10
221.981411
 20
13.083051
 30
0.0
  0
SPLINE
  5
165
100
AcDbEntity
  8
Layer_1
 62
7
100
AcDbSpline
 70
8
 71
3
 72
8
 73
4
 74
0
 40
0
 40
0
 40
0
 40
0
 40
1
 40
1
 40
1
 40
1
 10
229.168161
 20
17.397151
 30
0.0
 10
229.162161
 20
17.069721
 30
0.0
 10
228.744211
 20
13.646681
 30
0.0
 10
228.239211
 20
9.790381
 30
0.0
  0
LWPOLYLINE
  5
166
100
AcDbEntity
  8
Layer_1
 62
7
100
AcDbPolyline
 90
3
 70
0
 10
227.696091
 20
17.992461
 30
0.0
 10
229.178761
 20
17.992461
 30
0.0
 10
229.168161
 20
17.397151
 30
0.0
  0
SPLINE
  5
167
100
AcDbEntity
  8
Layer_1
 62
7
100
AcDbSpline
 70
8
 71
3
 72
8
 73
4
 74
0
 40
0
 40
0
 40
0
 40
0
 40
1
 40
1
 40
1
 40
1
 10
221.532651
 20
7.689291
 30
0.0
 10
219.977491
 20
10.463041
 30
0.0
 10
218.635291
 20
12.778661
 30
0.0
 10
218.549971
 20
12.835121
 30
0.0
  0
SPLINE
  5
168
100
AcDbEntity
  8
Layer_1
 62
7
100
AcDbSpline
 70
8
 71
3
 72
8
 73
4
 74
0
 40
0
 40
0
 40
0
 40
0
 40
1
 40
1
 40
1
 40
1
 10
218.549971
 20
12.835121
 30
0.0
 10
218.464571
 20
12.891621
 30
0.0
 10
218.144161
 20
10.890151
 30
0.0
 10
217.837791
 20
8.387501
 30
0.0
  0
SPLINE
  5
169
100
AcDbEntity
  8
Layer_1
 62
7
100
AcDbSpline
 70
8
 71
3
 72
8
 73
4
 74
0
 40
0
 40
0
 40
0
 40
0
 40
1
 40
1
 40
1
 40
1
 10
217.837791
 20
8.387501
 30
0.0
 10
217.531391
 20
5.884861
 30
0.0
 10
217.221341
 20
3.569361
 30
0.0
 10
217.148761
 20
3.241931
 30
0.0
  0
LWPOLYLINE
  5
16a
100
AcDbEntity
  8
Layer_1
 62
7
100
AcDbPolyline
 90
5
 70
0
 10
228.239211
 20
9.790381
 30
0.0
 10
227.321041
 20
2.778921
 30
0.0
 10
225.840611
 20
2.712521
 30
0.0
 10
224.360211
 20
2.646121
 30
0.0
 10
221.532651
 20
7.689291
 30
0.0
  0
SPLINE
  5
16b
100
AcDbEntity
  8
Layer_1
 62
7
100
AcDbSpline
 70
8
 71
3
 72
8
 73
4
 74
0
 40
0
 40
0
 40
0
 40
0
 40
1
 40
1
 40
1
 40
1
 10
215.560921
 20
2.646621
 30
0.0
 10
214.760171
 20
2.646621
 30
0.0
 10
214.229891
 20
2.648621
 30
0.0
 10
214.073951
 20
2.648621
 30
0.0
  0
SPLINE
  5
16c
100
AcDbEntity
  8
Layer_1
 62
7
100
AcDbSpline
 70
8
 71
3
 72
8
 73
4
 74
0
 40
0
 40
0
 40
0
 40
0
 40
1
 40
1
 40
1
 40
1
 10
214.073951
 20
2.648621
 30
0.0
 10
214.702671
 20
7.452551
 30
0.0
 10
215.247071
 20
12.342211
 30
0.0
 10
215.967681
 20
17.132421
 30
0.0
  0
LWPOLYLINE
  5
16d
100
AcDbEntity
  8
Layer_1
 62
7
100
AcDbPolyline
 90
3
 70
0
 10
217.148761
 20
3.241931
 30
0.0
 10
217.016811
 20
2.646621
 30
0.0
 10
215.560921
 20
2.646621
 30
0.0
  0
SPLINE
  5
16e
100
AcDbEntity
  8
Layer_1
 62
7
100
AcDbSpline
 70
8
 71
3
 72
8
 73
4
 74
0
 40
0
 40
0
 40
0
 40
0
 40
1
 40
1
 40
1
 40
1
 10
88.910329
 20
5.814471
 30
0.0
 10
89.996713
 20
6.300481
 30
0.0
 10
91.247831
 20
7.887941
 30
0.0
 10
91.448896
 20
9.035491
 30
0.0
  0
SPLINE
  5
16f
100
AcDbEntity
  8
Layer_1
 62
7
100
AcDbSpline
 70
8
 71
3
 72
8
 73
4
 74
0
 40
0
 40
0
 40
0
 40
0
 40
1
 40
1
 40
1
 40
1
 10
91.448896
 20
9.035491
 30
0.0
 10
91.715777
 20
10.558641
 30
0.0
 10
91.442396
 20
12.810111
 30
0.0
 10
90.894136
 20
13.603911
 30
0.0
  0
SPLINE
  5
170
100
AcDbEntity
  8
Layer_1
 62
7
100
AcDbSpline
 70
8
 71
3
 72
8
 73
4
 74
0
 40
0
 40
0
 40
0
 40
0
 40
1
 40
1
 40
1
 40
1
 10
90.894136
 20
13.603911
 30
0.0
 10
90.163398
 20
14.661981
 30
0.0
 10
88.543353
 20
15.635791
 30
0.0
 10
86.945976
 20
15.640191
 30
0.0
  0
LWPOLYLINE
  5
171
100
AcDbEntity
  8
Layer_1
 62
7
100
AcDbPolyline
 90
2
 70
0
 10
215.967681
 20
17.132421
 30
0.0
 10
215.967641
 20
17.131781
 30
0.0
  0
SPLINE
  5
172
100
AcDbEntity
  8
Layer_1
 62
7
100
AcDbSpline
 70
8
 71
3
 72
8
 73
4
 74
0
 40
0
 40
0
 40
0
 40
0
 40
1
 40
1
 40
1
 40
1
 10
85.387246
 20
15.644191
 30
0.0
 10
84.915194
 20
12.021721
 30
0.0
 10
84.450949
 20
8.487141
 30
0.0
 10
84.040202
 20
5.456711
 30
0.0
  0
LWPOLYLINE
  5
173
100
AcDbEntity
  8
Layer_1
 62
7
100
AcDbPolyline
 90
2
 70
0
 10
86.945976
 20
15.640191
 30
0.0
 10
85.387246
 20
15.644191
 30
0.0
  0
SPLINE
  5
174
100
AcDbEntity
  8
Layer_1
 62
7
100
AcDbSpline
 70
8
 71
3
 72
8
 73
4
 74
0
 40
0
 40
0
 40
0
 40
0
 40
1
 40
1
 40
1
 40
1
 10
86.126445
 20
5.456711
 30
0.0
 10
87.234470
 20
5.456711
 30
0.0
 10
88.464274
 20
5.614621
 30
0.0
 10
88.910329
 20
5.814171
 30
0.0
  0
LWPOLYLINE
  5
175
100
AcDbEntity
  8
Layer_1
 62
7
100
AcDbPolyline
 90
2
 70
0
 10
84.040202
 20
5.456711
 30
0.0
 10
86.126445
 20
5.456711
 30
0.0
  0
LWPOLYLINE
  5
176
100
AcDbEntity
  8
Layer_1
 62
7
100
AcDbPolyline
 90
2
 70
0
 10
88.910329
 20
5.814171
 30
0.0
 10
88.910329
 20
5.814471
 30
0.0
  0
SPLINE
  5
177
100
AcDbEntity
  8
Layer_1
 62
7
100
AcDbSpline
 70
8
 71
3
 72
8
 73
4
 74
0
 40
0
 40
0
 40
0
 40
0
 40
1
 40
1
 40
1
 40
1
 10
85.846180
 20
18.157001
 30
0.0
 10
89.884235
 20
18.157001
 30
0.0
 10
91.157553
 20
17.777771
 30
0.0
 10
92.781941
 20
16.091291
 30
0.0
  0
SPLINE
  5
178
100
AcDbEntity
  8
Layer_1
 62
7
100
AcDbSpline
 70
8
 71
3
 72
8
 73
4
 74
0
 40
0
 40
0
 40
0
 40
0
 40
1
 40
1
 40
1
 40
1
 10
92.781941
 20
16.091291
 30
0.0
 10
96.110488
 20
12.635531
 30
0.0
 10
95.140924
 20
5.916941
 30
0.0
 10
90.968891
 20
3.527781
 30
0.0
  0
SPLINE
  5
179
100
AcDbEntity
  8
Layer_1
 62
7
100
AcDbSpline
 70
8
 71
3
 72
8
 73
4
 74
0
 40
0
 40
0
 40
0
 40
0
 40
1
 40
1
 40
1
 40
1
 10
90.968891
 20
3.527781
 30
0.0
 10
90.968891
 20
3.527781
 30
0.0
 10
89.562123
 20
2.843351
 30
0.0
 10
88.560242
 20
2.843351
 30
0.0
  0
SPLINE
  5
17a
100
AcDbEntity
  8
Layer_1
 62
7
100
AcDbSpline
 70
8
 71
3
 72
8
 73
4
 74
0
 40
0
 40
0
 40
0
 40
0
 40
1
 40
1
 40
1
 40
1
 10
88.560242
 20
2.843351
 30
0.0
 10
86.183717
 20
2.843351
 30
0.0
 10
85.354399
 20
2.856751
 30
0.0
 10
85.354399
 20
2.856751
 30
0.0
  0
SPLINE
  5
17b
100
AcDbEntity
  8
Layer_1
 62
7
100
AcDbSpline
 70
8
 71
3
 72
8
 73
4
 74
0
 40
0
 40
0
 40
0
 40
0
 40
1
 40
1
 40
1
 40
1
 10
85.354399
 20
2.856751
 30
0.0
 10
82.806044
 20
2.809051
 30
0.0
 10
81.064262
 20
2.827151
 30
0.0
 10
80.666427
 20
2.827151
 30
0.0
  0
SPLINE
  5
17c
100
AcDbEntity
  8
Layer_1
 62
7
100
AcDbSpline
 70
8
 71
3
 72
8
 73
4
 74
0
 40
0
 40
0
 40
0
 40
0
 40
1
 40
1
 40
1
 40
1
 10
80.666427
 20
2.827151
 30
0.0
 10
80.767241
 20
3.585631
 30
0.0
 10
81.775116
 20
12.702621
 30
0.0
 10
82.559746
 20
17.429451
 30
0.0
  0
LWPOLYLINE
  5
17d
100
AcDbEntity
  8
Layer_1
 62
7
100
AcDbPolyline
 90
3
 70
0
 10
82.559746
 20
17.429401
 30
0.0
 10
82.698198
 20
18.157001
 30
0.0
 10
85.846180
 20
18.157001
 30
0.0
  0
SPLINE
  5
17e
100
AcDbEntity
  8
Layer_1
 62
7
100
AcDbSpline
 70
8
 71
3
 72
8
 73
4
 74
0
 40
0
 40
0
 40
0
 40
0
 40
1
 40
1
 40
1
 40
1
 10
57.459053
 20
2.864711
 30
0.0
 10
57.462153
 20
2.908011
 30
0.0
 10
58.497347
 20
6.336761
 30
0.0
 10
59.759505
 20
10.484111
 30
0.0
  0
LWPOLYLINE
  5
17f
100
AcDbEntity
  8
Layer_1
 62
7
100
AcDbPolyline
 90
1
 70
1
 10
82.559746
 20
17.429451
 30
0.0
  0
SPLINE
  5
180
100
AcDbEntity
  8
Layer_1
 62
7
100
AcDbSpline
 70
8
 71
3
 72
8
 73
4
 74
0
 40
0
 40
0
 40
0
 40
0
 40
1
 40
1
 40
1
 40
1
 10
62.120526
 20
18.190101
 30
0.0
 10
63.711272
 20
18.195101
 30
0.0
 10
64.072899
 20
18.187101
 30
0.0
 10
65.499125
 20
18.177801
 30
0.0
  0
SPLINE
  5
181
100
AcDbEntity
  8
Layer_1
 62
7
100
AcDbSpline
 70
8
 71
3
 72
8
 73
4
 74
0
 40
0
 40
0
 40
0
 40
0
 40
1
 40
1
 40
1
 40
1
 10
65.499125
 20
18.177801
 30
0.0
 10
66.443933
 20
14.369781
 30
0.0
 10
67.492490
 20
10.276801
 30
0.0
 10
67.888908
 20
8.934101
 30
0.0
  0
SPLINE
  5
182
100
AcDbEntity
  8
Layer_1
 62
7
100
AcDbSpline
 70
8
 71
3
 72
8
 73
4
 74
0
 40
0
 40
0
 40
0
 40
0
 40
1
 40
1
 40
1
 40
1
 10
67.888908
 20
8.934101
 30
0.0
 10
68.044438
 20
9.161841
 30
0.0
 10
69.238193
 20
11.394881
 30
0.0
 10
70.432053
 20
13.794331
 30
0.0
  0
LWPOLYLINE
  5
183
100
AcDbEntity
  8
Layer_1
 62
7
100
AcDbPolyline
 90
2
 70
0
 10
59.759505
 20
10.484111
 30
0.0
 10
62.120526
 20
18.190101
 30
0.0
  0
SPLINE
  5
184
100
AcDbEntity
  8
Layer_1
 62
7
100
AcDbSpline
 70
8
 71
3
 72
8
 73
4
 74
0
 40
0
 40
0
 40
0
 40
0
 40
1
 40
1
 40
1
 40
1
 10
72.602707
 20
18.156971
 30
0.0
 10
73.705223
 20
18.156971
 30
0.0
 10
74.807740
 20
18.156971
 30
0.0
 10
75.910256
 20
18.156971
 30
0.0
  0
LWPOLYLINE
  5
185
100
AcDbEntity
  8
Layer_1
 62
7
100
AcDbPolyline
 90
2
 70
0
 10
70.432053
 20
13.794331
 30
0.0
 10
72.602707
 20
18.156971
 30
0.0
  0
SPLINE
  5
186
100
AcDbEntity
  8
Layer_1
 62
7
100
AcDbSpline
 70
8
 71
3
 72
8
 73
4
 74
0
 40
0
 40
0
 40
0
 40
0
 40
1
 40
1
 40
1
 40
1
 10
76.075716
 20
13.725201
 30
0.0
 10
76.166726
 20
11.287731
 30
0.0
 10
76.312110
 20
7.834921
 30
0.0
 10
76.398809
 20
6.052291
 30
0.0
  0
LWPOLYLINE
  5
187
100
AcDbEntity
  8
Layer_1
 62
7
100
AcDbPolyline
 90
2
 70
0
 10
75.910256
 20
18.156971
 30
0.0
 10
76.075716
 20
13.725201
 30
0.0
  0
SPLINE
  5
188
100
AcDbEntity
  8
Layer_1
 62
7
100
AcDbSpline
 70
8
 71
3
 72
8
 73
4
 74
0
 40
0
 40
0
 40
0
 40
0
 40
1
 40
1
 40
1
 40
1
 10
73.388386
 20
7.990441
 30
0.0
 10
73.288626
 20
10.839041
 30
0.0
 10
73.122180
 20
13.071471
 30
0.0
 10
73.018501
 20
12.951371
 30
0.0
  0
SPLINE
  5
189
100
AcDbEntity
  8
Layer_1
 62
7
100
AcDbSpline
 70
8
 71
3
 72
8
 73
4
 74
0
 40
0
 40
0
 40
0
 40
0
 40
1
 40
1
 40
1
 40
1
 10
73.018501
 20
12.951371
 30
0.0
 10
72.914822
 20
12.831281
 30
0.0
 10
71.691830
 20
10.500601
 30
0.0
 10
70.300744
 20
7.772081
 30
0.0
  0
LWPOLYLINE
  5
18a
100
AcDbEntity
  8
Layer_1
 62
7
100
AcDbPolyline
 90
5
 70
0
 10
76.398809
 20
6.052291
 30
0.0
 10
76.556442
 20
2.811141
 30
0.0
 10
75.063102
 20
2.811141
 30
0.0
 10
73.569762
 20
2.811141
 30
0.0
 10
73.388386
 20
7.990441
 30
0.0
  0
SPLINE
  5
18b
100
AcDbEntity
  8
Layer_1
 62
7
100
AcDbSpline
 70
8
 71
3
 72
8
 73
4
 74
0
 40
0
 40
0
 40
0
 40
0
 40
1
 40
1
 40
1
 40
1
 10
66.127688
 20
3.803331
 30
0.0
 10
65.995216
 20
4.349031
 30
0.0
 10
65.412951
 20
6.749001
 30
0.0
 10
64.833766
 20
9.136581
 30
0.0
  0
SPLINE
  5
18c
100
AcDbEntity
  8
Layer_1
 62
7
100
AcDbSpline
 70
8
 71
3
 72
8
 73
4
 74
0
 40
0
 40
0
 40
0
 40
0
 40
1
 40
1
 40
1
 40
1
 10
64.833766
 20
9.136581
 30
0.0
 10
64.254578
 20
11.524161
 30
0.0
 10
63.726211
 20
13.310101
 30
0.0
 10
63.659617
 20
13.105331
 30
0.0
  0
SPLINE
  5
18d
100
AcDbEntity
  8
Layer_1
 62
7
100
AcDbSpline
 70
8
 71
3
 72
8
 73
4
 74
0
 40
0
 40
0
 40
0
 40
0
 40
1
 40
1
 40
1
 40
1
 10
63.659617
 20
13.105331
 30
0.0
 10
63.593027
 20
12.900561
 30
0.0
 10
62.857818
 20
10.530361
 30
0.0
 10
62.025831
 20
7.838231
 30
0.0
  0
LWPOLYLINE
  5
18e
100
AcDbEntity
  8
Layer_1
 62
7
100
AcDbPolyline
 90
5
 70
0
 10
70.300744
 20
7.772081
 30
0.0
 10
67.771495
 20
2.811141
 30
0.0
 10
67.070019
 20
2.811141
 30
0.0
 10
66.368544
 20
2.811141
 30
0.0
 10
66.127688
 20
3.803331
 30
0.0
  0
SPLINE
  5
18f
100
AcDbEntity
  8
Layer_1
 62
7
100
AcDbSpline
 70
8
 71
3
 72
8
 73
4
 74
0
 40
0
 40
0
 40
0
 40
0
 40
1
 40
1
 40
1
 40
1
 10
59.115890
 20
2.814501
 30
0.0
 10
58.212070
 20
2.804501
 30
0.0
 10
57.455961
 20
2.821501
 30
0.0
 10
57.459053
 20
2.864601
 30
0.0
  0
LWPOLYLINE
  5
190
100
AcDbEntity
  8
Layer_1
 62
7
100
AcDbPolyline
 90
3
 70
0
 10
62.025831
 20
7.838231
 30
0.0
 10
60.497523
 20
2.826501
 30
0.0
 10
59.115890
 20
2.814501
 30
0.0
  0
SPLINE
  5
191
100
AcDbEntity
  8
Layer_1
 62
7
100
AcDbSpline
 70
8
 71
3
 72
8
 73
4
 74
0
 40
0
 40
0
 40
0
 40
0
 40
1
 40
1
 40
1
 40
1
 10
102.995760
 20
5.814431
 30
0.0
 10
104.082144
 20
6.300441
 30
0.0
 10
105.333264
 20
7.887901
 30
0.0
 10
105.534324
 20
9.035451
 30
0.0
  0
SPLINE
  5
192
100
AcDbEntity
  8
Layer_1
 62
7
100
AcDbSpline
 70
8
 71
3
 72
8
 73
4
 74
0
 40
0
 40
0
 40
0
 40
0
 40
1
 40
1
 40
1
 40
1
 10
105.534324
 20
9.035451
 30
0.0
 10
105.801204
 20
10.558601
 30
0.0
 10
105.527324
 20
12.810071
 30
0.0
 10
104.979564
 20
13.603871
 30
0.0
  0
SPLINE
  5
193
100
AcDbEntity
  8
Layer_1
 62
7
100
AcDbSpline
 70
8
 71
3
 72
8
 73
4
 74
0
 40
0
 40
0
 40
0
 40
0
 40
1
 40
1
 40
1
 40
1
 10
104.979564
 20
13.603871
 30
0.0
 10
104.248834
 20
14.661941
 30
0.0
 10
102.628784
 20
15.635751
 30
0.0
 10
101.031407
 20
15.640151
 30
0.0
  0
LWPOLYLINE
  5
194
100
AcDbEntity
  8
Layer_1
 62
7
100
AcDbPolyline
 90
2
 70
0
 10
57.459053
 20
2.864601
 30
0.0
 10
57.459053
 20
2.864711
 30
0.0
  0
SPLINE
  5
195
100
AcDbEntity
  8
Layer_1
 62
7
100
AcDbSpline
 70
8
 71
3
 72
8
 73
4
 74
0
 40
0
 40
0
 40
0
 40
0
 40
1
 40
1
 40
1
 40
1
 10
99.472677
 20
15.644151
 30
0.0
 10
99.000625
 20
12.021681
 30
0.0
 10
98.536379
 20
8.487101
 30
0.0
 10
98.125633
 20
5.456671
 30
0.0
  0
LWPOLYLINE
  5
196
100
AcDbEntity
  8
Layer_1
 62
7
100
AcDbPolyline
 90
2
 70
0
 10
101.031407
 20
15.640151
 30
0.0
 10
99.472677
 20
15.644151
 30
0.0
  0
SPLINE
  5
197
100
AcDbEntity
  8
Layer_1
 62
7
100
AcDbSpline
 70
8
 71
3
 72
8
 73
4
 74
0
 40
0
 40
0
 40
0
 40
0
 40
1
 40
1
 40
1
 40
1
 10
100.211876
 20
5.456671
 30
0.0
 10
101.319900
 20
5.456671
 30
0.0
 10
102.549705
 20
5.614581
 30
0.0
 10
102.995760
 20
5.814131
 30
0.0
  0
LWPOLYLINE
  5
198
100
AcDbEntity
  8
Layer_1
 62
7
100
AcDbPolyline
 90
2
 70
0
 10
98.125633
 20
5.456671
 30
0.0
 10
100.211876
 20
5.456671
 30
0.0
  0
LWPOLYLINE
  5
199
100
AcDbEntity
  8
Layer_1
 62
7
100
AcDbPolyline
 90
2
 70
0
 10
102.995760
 20
5.814131
 30
0.0
 10
102.995760
 20
5.814431
 30
0.0
  0
SPLINE
  5
19a
100
AcDbEntity
  8
Layer_1
 62
7
100
AcDbSpline
 70
8
 71
3
 72
8
 73
4
 74
0
 40
0
 40
0
 40
0
 40
0
 40
1
 40
1
 40
1
 40
1
 10
99.931611
 20
18.156961
 30
0.0
 10
103.969664
 20
18.156961
 30
0.0
 10
105.242984
 20
17.777731
 30
0.0
 10
106.867374
 20
16.091251
 30
0.0
  0
SPLINE
  5
19b
100
AcDbEntity
  8
Layer_1
 62
7
100
AcDbSpline
 70
8
 71
3
 72
8
 73
4
 74
0
 40
0
 40
0
 40
0
 40
0
 40
1
 40
1
 40
1
 40
1
 10
106.867374
 20
16.091251
 30
0.0
 10
110.195924
 20
12.635491
 30
0.0
 10
109.226354
 20
5.916901
 30
0.0
 10
105.054324
 20
3.527741
 30
0.0
  0
SPLINE
  5
19c
100
AcDbEntity
  8
Layer_1
 62
7
100
AcDbSpline
 70
8
 71
3
 72
8
 73
4
 74
0
 40
0
 40
0
 40
0
 40
0
 40
1
 40
1
 40
1
 40
1
 10
105.054324
 20
3.527741
 30
0.0
 10
105.054324
 20
3.527741
 30
0.0
 10
103.647554
 20
2.843311
 30
0.0
 10
102.645673
 20
2.843311
 30
0.0
  0
SPLINE
  5
19d
100
AcDbEntity
  8
Layer_1
 62
7
100
AcDbSpline
 70
8
 71
3
 72
8
 73
4
 74
0
 40
0
 40
0
 40
0
 40
0
 40
1
 40
1
 40
1
 40
1
 10
102.645673
 20
2.843311
 30
0.0
 10
100.269148
 20
2.843311
 30
0.0
 10
99.439830
 20
2.856711
 30
0.0
 10
99.439830
 20
2.856711
 30
0.0
  0
SPLINE
  5
19e
100
AcDbEntity
  8
Layer_1
 62
7
100
AcDbSpline
 70
8
 71
3
 72
8
 73
4
 74
0
 40
0
 40
0
 40
0
 40
0
 40
1
 40
1
 40
1
 40
1
 10
99.439830
 20
2.856711
 30
0.0
 10
96.891475
 20
2.809011
 30
0.0
 10
95.149692
 20
2.827111
 30
0.0
 10
94.751858
 20
2.827111
 30
0.0
  0
SPLINE
  5
19f
100
AcDbEntity
  8
Layer_1
 62
7
100
AcDbSpline
 70
8
 71
3
 72
8
 73
4
 74
0
 40
0
 40
0
 40
0
 40
0
 40
1
 40
1
 40
1
 40
1
 10
94.751858
 20
2.827111
 30
0.0
 10
94.852672
 20
3.585591
 30
0.0
 10
95.860547
 20
12.702581
 30
0.0
 10
96.645177
 20
17.429411
 30
0.0
  0
LWPOLYLINE
  5
1a0
100
AcDbEntity
  8
Layer_1
 62
7
100
AcDbPolyline
 90
3
 70
0
 10
96.645177
 20
17.429361
 30
0.0
 10
96.783629
 20
18.156961
 30
0.0
 10
99.931611
 20
18.156961
 30
0.0
  0
SPLINE
  5
1a1
100
AcDbEntity
  8
Layer_1
 62
7
100
AcDbSpline
 70
8
 71
3
 72
8
 73
4
 74
0
 40
0
 40
0
 40
0
 40
0
 40
1
 40
1
 40
1
 40
1
 10
175.329762
 20
5.814511
 30
0.0
 10
176.416152
 20
6.300521
 30
0.0
 10
177.667272
 20
7.887981
 30
0.0
 10
177.868332
 20
9.035531
 30
0.0
  0
SPLINE
  5
1a2
100
AcDbEntity
  8
Layer_1
 62
7
100
AcDbSpline
 70
8
 71
3
 72
8
 73
4
 74
0
 40
0
 40
0
 40
0
 40
0
 40
1
 40
1
 40
1
 40
1
 10
177.868332
 20
9.035531
 30
0.0
 10
178.135212
 20
10.558681
 30
0.0
 10
177.861332
 20
12.810151
 30
0.0
 10
177.313572
 20
13.603951
 30
0.0
  0
SPLINE
  5
1a3
100
AcDbEntity
  8
Layer_1
 62
7
100
AcDbSpline
 70
8
 71
3
 72
8
 73
4
 74
0
 40
0
 40
0
 40
0
 40
0
 40
1
 40
1
 40
1
 40
1
 10
177.313572
 20
13.603951
 30
0.0
 10
176.582832
 20
14.662021
 30
0.0
 10
174.962792
 20
15.635831
 30
0.0
 10
173.365412
 20
15.640231
 30
0.0
  0
LWPOLYLINE
  5
1a4
100
AcDbEntity
  8
Layer_1
 62
7
100
AcDbPolyline
 90
1
 70
1
 10
96.645177
 20
17.429411
 30
0.0
  0
SPLINE
  5
1a5
100
AcDbEntity
  8
Layer_1
 62
7
100
AcDbSpline
 70
8
 71
3
 72
8
 73
4
 74
0
 40
0
 40
0
 40
0
 40
0
 40
1
 40
1
 40
1
 40
1
 10
171.806682
 20
15.644231
 30
0.0
 10
171.334622
 20
12.021761
 30
0.0
 10
170.870392
 20
8.487181
 30
0.0
 10
170.459632
 20
5.456751
 30
0.0
  0
LWPOLYLINE
  5
1a6
100
AcDbEntity
  8
Layer_1
 62
7
100
AcDbPolyline
 90
2
 70
0
 10
173.365412
 20
15.640231
 30
0.0
 10
171.806682
 20
15.644231
 30
0.0
  0
SPLINE
  5
1a7
100
AcDbEntity
  8
Layer_1
 62
7
100
AcDbSpline
 70
8
 71
3
 72
8
 73
4
 74
0
 40
0
 40
0
 40
0
 40
0
 40
1
 40
1
 40
1
 40
1
 10
172.545882
 20
5.456751
 30
0.0
 10
173.653902
 20
5.456751
 30
0.0
 10
174.883712
 20
5.614661
 30
0.0
 10
175.329762
 20
5.814211
 30
0.0
  0
LWPOLYLINE
  5
1a8
100
AcDbEntity
  8
Layer_1
 62
7
100
AcDbPolyline
 90
2
 70
0
 10
170.459632
 20
5.456751
 30
0.0
 10
172.545882
 20
5.456751
 30
0.0
  0
LWPOLYLINE
  5
1a9
100
AcDbEntity
  8
Layer_1
 62
7
100
AcDbPolyline
 90
2
 70
0
 10
175.329762
 20
5.814211
 30
0.0
 10
175.329762
 20
5.814511
 30
0.0
  0
SPLINE
  5
1aa
100
AcDbEntity
  8
Layer_1
 62
7
100
AcDbSpline
 70
8
 71
3
 72
8
 73
4
 74
0
 40
0
 40
0
 40
0
 40
0
 40
1
 40
1
 40
1
 40
1
 10
172.265612
 20
18.157041
 30
0.0
 10
176.303672
 20
18.157041
 30
0.0
 10
177.576992
 20
17.777811
 30
0.0
 10
179.201382
 20
16.091331
 30
0.0
  0
SPLINE
  5
1ab
100
AcDbEntity
  8
Layer_1
 62
7
100
AcDbSpline
 70
8
 71
3
 72
8
 73
4
 74
0
 40
0
 40
0
 40
0
 40
0
 40
1
 40
1
 40
1
 40
1
 10
179.201382
 20
16.091331
 30
0.0
 10
182.529922
 20
12.635571
 30
0.0
 10
181.560362
 20
5.916981
 30
0.0
 10
177.388332
 20
3.527821
 30
0.0
  0
SPLINE
  5
1ac
100
AcDbEntity
  8
Layer_1
 62
7
100
AcDbSpline
 70
8
 71
3
 72
8
 73
4
 74
0
 40
0
 40
0
 40
0
 40
0
 40
1
 40
1
 40
1
 40
1
 10
177.388332
 20
3.527821
 30
0.0
 10
177.388332
 20
3.527821
 30
0.0
 10
175.981552
 20
2.843391
 30
0.0
 10
174.979672
 20
2.843391
 30
0.0
  0
SPLINE
  5
1ad
100
AcDbEntity
  8
Layer_1
 62
7
100
AcDbSpline
 70
8
 71
3
 72
8
 73
4
 74
0
 40
0
 40
0
 40
0
 40
0
 40
1
 40
1
 40
1
 40
1
 10
174.979672
 20
2.843391
 30
0.0
 10
172.603152
 20
2.843391
 30
0.0
 10
171.773832
 20
2.856791
 30
0.0
 10
171.773832
 20
2.856791
 30
0.0
  0
SPLINE
  5
1ae
100
AcDbEntity
  8
Layer_1
 62
7
100
AcDbSpline
 70
8
 71
3
 72
8
 73
4
 74
0
 40
0
 40
0
 40
0
 40
0
 40
1
 40
1
 40
1
 40
1
 10
171.773832
 20
2.856791
 30
0.0
 10
169.225482
 20
2.809091
 30
0.0
 10
167.483702
 20
2.827191
 30
0.0
 10
167.085872
 20
2.827191
 30
0.0
  0
SPLINE
  5
1af
100
AcDbEntity
  8
Layer_1
 62
7
100
AcDbSpline
 70
8
 71
3
 72
8
 73
4
 74
0
 40
0
 40
0
 40
0
 40
0
 40
1
 40
1
 40
1
 40
1
 10
167.085872
 20
2.827191
 30
0.0
 10
167.186682
 20
3.585671
 30
0.0
 10
168.194552
 20
12.702661
 30
0.0
 10
168.979182
 20
17.429491
 30
0.0
  0
LWPOLYLINE
  5
1b0
100
AcDbEntity
  8
Layer_1
 62
7
100
AcDbPolyline
 90
3
 70
0
 10
168.979182
 20
17.429441
 30
0.0
 10
169.117632
 20
18.157041
 30
0.0
 10
172.265612
 20
18.157041
 30
0.0
  0
SPLINE
  5
1b1
100
AcDbEntity
  8
Layer_1
 62
7
100
AcDbSpline
 70
8
 71
3
 72
8
 73
4
 74
0
 40
0
 40
0
 40
0
 40
0
 40
1
 40
1
 40
1
 40
1
 10
119.143473
 20
2.820621
 30
0.0
 10
119.143623
 20
3.072781
 30
0.0
 10
120.911513
 20
16.145621
 30
0.0
 10
121.094353
 20
17.297111
 30
0.0
  0
LWPOLYLINE
  5
1b2
100
AcDbEntity
  8
Layer_1
 62
7
100
AcDbPolyline
 90
1
 70
1
 10
168.979182
 20
17.429491
 30
0.0
  0
SPLINE
  5
1b3
100
AcDbEntity
  8
Layer_1
 62
7
100
AcDbSpline
 70
8
 71
3
 72
8
 73
4
 74
0
 40
0
 40
0
 40
0
 40
0
 40
1
 40
1
 40
1
 40
1
 10
125.667693
 20
18.157001
 30
0.0
 10
130.489933
 20
18.157001
 30
0.0
 10
128.505593
 20
18.118001
 30
0.0
 10
130.055943
 20
18.132401
 30
0.0
  0
LWPOLYLINE
  5
1b4
100
AcDbEntity
  8
Layer_1
 62
7
100
AcDbPolyline
 90
3
 70
0
 10
121.094353
 20
17.297111
 30
0.0
 10
121.230893
 20
18.157001
 30
0.0
 10
125.667693
 20
18.157001
 30
0.0
  0
SPLINE
  5
1b5
100
AcDbEntity
  8
Layer_1
 62
7
100
AcDbSpline
 70
8
 71
3
 72
8
 73
4
 74
0
 40
0
 40
0
 40
0
 40
0
 40
1
 40
1
 40
1
 40
1
 10
123.836023
 20
15.048101
 30
0.0
 10
123.764623
 20
14.647911
 30
0.0
 10
123.634743
 20
13.814481
 30
0.0
 10
123.547563
 20
13.196011
 30
0.0
  0
LWPOLYLINE
  5
1b6
100
AcDbEntity
  8
Layer_1
 62
7
100
AcDbPolyline
 90
5
 70
0
 10
130.055943
 20
18.132401
 30
0.0
 10
129.663233
 20
15.775701
 30
0.0
 10
126.880803
 20
15.775701
 30
0.0
 10
123.965983
 20
15.775701
 30
0.0
 10
123.836023
 20
15.048101
 30
0.0
  0
SPLINE
  5
1b7
100
AcDbEntity
  8
Layer_1
 62
7
100
AcDbSpline
 70
8
 71
3
 72
8
 73
4
 74
0
 40
0
 40
0
 40
0
 40
0
 40
1
 40
1
 40
1
 40
1
 10
128.683613
 20
12.071531
 30
0.0
 10
128.564793
 20
11.190671
 30
0.0
 10
128.476133
 20
10.319431
 30
0.0
 10
128.374733
 20
9.425701
 30
0.0
  0
LWPOLYLINE
  5
1b8
100
AcDbEntity
  8
Layer_1
 62
7
100
AcDbPolyline
 90
4
 70
0
 10
123.547563
 20
13.196011
 30
0.0
 10
123.389063
 20
12.071531
 30
0.0
 10
126.036333
 20
12.071531
 30
0.0
 10
128.683613
 20
12.071531
 30
0.0
  0
SPLINE
  5
1b9
100
AcDbEntity
  8
Layer_1
 62
7
100
AcDbSpline
 70
8
 71
3
 72
8
 73
4
 74
0
 40
0
 40
0
 40
0
 40
0
 40
1
 40
1
 40
1
 40
1
 10
125.794643
 20
9.425701
 30
0.0
 10
124.375593
 20
9.425701
 30
0.0
 10
123.624003
 20
9.394301
 30
0.0
 10
123.085963
 20
9.394301
 30
0.0
  0
SPLINE
  5
1ba
100
AcDbEntity
  8
Layer_1
 62
7
100
AcDbSpline
 70
8
 71
3
 72
8
 73
4
 74
0
 40
0
 40
0
 40
0
 40
0
 40
1
 40
1
 40
1
 40
1
 10
123.085963
 20
9.394301
 30
0.0
 10
122.984813
 20
8.700511
 30
0.0
 10
122.908703
 20
8.225151
 30
0.0
 10
122.811083
 20
7.242881
 30
0.0
  0
LWPOLYLINE
  5
1bb
100
AcDbEntity
  8
Layer_1
 62
7
100
AcDbPolyline
 90
2
 70
0
 10
128.374733
 20
9.425701
 30
0.0
 10
125.794643
 20
9.425701
 30
0.0
  0
SPLINE
  5
1bc
100
AcDbEntity
  8
Layer_1
 62
7
100
AcDbSpline
 70
8
 71
3
 72
8
 73
4
 74
0
 40
0
 40
0
 40
0
 40
0
 40
1
 40
1
 40
1
 40
1
 10
128.374733
 20
5.456961
 30
0.0
 10
128.266413
 20
4.368461
 30
0.0
 10
128.179773
 20
3.644211
 30
0.0
 10
128.074743
 20
2.811121
 30
0.0
  0
LWPOLYLINE
  5
1bd
100
AcDbEntity
  8
Layer_1
 62
7
100
AcDbPolyline
 90
4
 70
0
 10
122.811083
 20
7.242881
 30
0.0
 10
122.633593
 20
5.456961
 30
0.0
 10
126.245483
 20
5.456961
 30
0.0
 10
128.374733
 20
5.456961
 30
0.0
  0
SPLINE
  5
1be
100
AcDbEntity
  8
Layer_1
 62
7
100
AcDbSpline
 70
8
 71
3
 72
8
 73
4
 74
0
 40
0
 40
0
 40
0
 40
0
 40
1
 40
1
 40
1
 40
1
 10
124.394513
 20
2.811121
 30
0.0
 10
121.554913
 20
2.811121
 30
0.0
 10
119.441263
 20
2.811831
 30
0.0
 10
119.143473
 20
2.820121
 30
0.0
  0
LWPOLYLINE
  5
1bf
100
AcDbEntity
  8
Layer_1
 62
7
100
AcDbPolyline
 90
2
 70
0
 10
128.074743
 20
2.811121
 30
0.0
 10
124.394513
 20
2.811121
 30
0.0
  0
SPLINE
  5
1c0
100
AcDbEntity
  8
Layer_1
 62
7
100
AcDbSpline
 70
8
 71
3
 72
8
 73
4
 74
0
 40
0
 40
0
 40
0
 40
0
 40
1
 40
1
 40
1
 40
1
 10
157.128832
 20
2.820621
 30
0.0
 10
157.128982
 20
3.072781
 30
0.0
 10
158.896882
 20
16.145631
 30
0.0
 10
159.079732
 20
17.297111
 30
0.0
  0
LWPOLYLINE
  5
1c1
100
AcDbEntity
  8
Layer_1
 62
7
100
AcDbPolyline
 90
2
 70
0
 10
119.143473
 20
2.820121
 30
0.0
 10
119.143473
 20
2.820621
 30
0.0
  0
SPLINE
  5
1c2
100
AcDbEntity
  8
Layer_1
 62
7
100
AcDbSpline
 70
8
 71
3
 72
8
 73
4
 74
0
 40
0
 40
0
 40
0
 40
0
 40
1
 40
1
 40
1
 40
1
 10
163.653102
 20
18.157011
 30
0.0
 10
168.475362
 20
18.157011
 30
0.0
 10
166.491012
 20
18.118011
 30
0.0
 10
168.041362
 20
18.132411
 30
0.0
  0
LWPOLYLINE
  5
1c3
100
AcDbEntity
  8
Layer_1
 62
7
100
AcDbPolyline
 90
3
 70
0
 10
159.079732
 20
17.297111
 30
0.0
 10
159.216272
 20
18.157011
 30
0.0
 10
163.653102
 20
18.157011
 30
0.0
  0
SPLINE
  5
1c4
100
AcDbEntity
  8
Layer_1
 62
7
100
AcDbSpline
 70
8
 71
3
 72
8
 73
4
 74
0
 40
0
 40
0
 40
0
 40
0
 40
1
 40
1
 40
1
 40
1
 10
161.821412
 20
15.048101
 30
0.0
 10
161.750012
 20
14.647921
 30
0.0
 10
161.620132
 20
13.814481
 30
0.0
 10
161.532952
 20
13.196021
 30
0.0
  0
LWPOLYLINE
  5
1c5
100
AcDbEntity
  8
Layer_1
 62
7
100
AcDbPolyline
 90
5
 70
0
 10
168.041362
 20
18.132411
 30
0.0
 10
167.648662
 20
15.775701
 30
0.0
 10
164.866212
 20
15.775701
 30
0.0
 10
161.951382
 20
15.775701
 30
0.0
 10
161.821412
 20
15.048101
 30
0.0
  0
SPLINE
  5
1c6
100
AcDbEntity
  8
Layer_1
 62
7
100
AcDbSpline
 70
8
 71
3
 72
8
 73
4
 74
0
 40
0
 40
0
 40
0
 40
0
 40
1
 40
1
 40
1
 40
1
 10
166.669032
 20
12.071541
 30
0.0
 10
166.550212
 20
11.190681
 30
0.0
 10
166.461542
 20
10.319431
 30
0.0
 10
166.360142
 20
9.425701
 30
0.0
  0
LWPOLYLINE
  5
1c7
100
AcDbEntity
  8
Layer_1
 62
7
100
AcDbPolyline
 90
4
 70
0
 10
161.532952
 20
13.196021
 30
0.0
 10
161.374442
 20
12.071541
 30
0.0
 10
164.021742
 20
12.071541
 30
0.0
 10
166.669032
 20
12.071541
 30
0.0
  0
SPLINE
  5
1c8
100
AcDbEntity
  8
Layer_1
 62
7
100
AcDbSpline
 70
8
 71
3
 72
8
 73
4
 74
0
 40
0
 40
0
 40
0
 40
0
 40
1
 40
1
 40
1
 40
1
 10
163.780042
 20
9.425701
 30
0.0
 10
162.360992
 20
9.425701
 30
0.0
 10
161.609382
 20
9.394301
 30
0.0
 10
161.071342
 20
9.394301
 30
0.0
  0
SPLINE
  5
1c9
100
AcDbEntity
  8
Layer_1
 62
7
100
AcDbSpline
 70
8
 71
3
 72
8
 73
4
 74
0
 40
0
 40
0
 40
0
 40
0
 40
1
 40
1
 40
1
 40
1
 10
161.071342
 20
9.394301
 30
0.0
 10
160.970192
 20
8.700511
 30
0.0
 10
160.894092
 20
8.225151
 30
0.0
 10
160.796472
 20
7.242891
 30
0.0
  0
LWPOLYLINE
  5
1ca
100
AcDbEntity
  8
Layer_1
 62
7
100
AcDbPolyline
 90
2
 70
0
 10
166.360142
 20
9.425701
 30
0.0
 10
163.780042
 20
9.425701
 30
0.0
  0
SPLINE
  5
1cb
100
AcDbEntity
  8
Layer_1
 62
7
100
AcDbSpline
 70
8
 71
3
 72
8
 73
4
 74
0
 40
0
 40
0
 40
0
 40
0
 40
1
 40
1
 40
1
 40
1
 10
166.360142
 20
5.456961
 30
0.0
 10
166.251832
 20
4.368461
 30
0.0
 10
166.165192
 20
3.644211
 30
0.0
 10
166.060152
 20
2.811121
 30
0.0
  0
LWPOLYLINE
  5
1cc
100
AcDbEntity
  8
Layer_1
 62
7
100
AcDbPolyline
 90
4
 70
0
 10
160.796472
 20
7.242891
 30
0.0
 10
160.618982
 20
5.456961
 30
0.0
 10
164.230892
 20
5.456961
 30
0.0
 10
166.360142
 20
5.456961
 30
0.0
  0
SPLINE
  5
1cd
100
AcDbEntity
  8
Layer_1
 62
7
100
AcDbSpline
 70
8
 71
3
 72
8
 73
4
 74
0
 40
0
 40
0
 40
0
 40
0
 40
1
 40
1
 40
1
 40
1
 10
162.379902
 20
2.811121
 30
0.0
 10
159.540292
 20
2.811121
 30
0.0
 10
157.426632
 20
2.811831
 30
0.0
 10
157.128832
 20
2.820121
 30
0.0
  0
LWPOLYLINE
  5
1ce
100
AcDbEntity
  8
Layer_1
 62
7
100
AcDbPolyline
 90
2
 70
0
 10
166.060152
 20
2.811121
 30
0.0
 10
162.379902
 20
2.811121
 30
0.0
  0
SPLINE
  5
1cf
100
AcDbEntity
  8
Layer_1
 62
7
100
AcDbSpline
 70
8
 71
3
 72
8
 73
4
 74
0
 40
0
 40
0
 40
0
 40
0
 40
1
 40
1
 40
1
 40
1
 10
183.809602
 20
2.699371
 30
0.0
 10
183.812602
 20
2.742671
 30
0.0
 10
184.847892
 20
6.171421
 30
0.0
 10
186.110052
 20
10.318761
 30
0.0
  0
LWPOLYLINE
  5
1d0
100
AcDbEntity
  8
Layer_1
 62
7
100
AcDbPolyline
 90
2
 70
0
 10
157.128832
 20
2.820121
 30
0.0
 10
157.128832
 20
2.820621
 30
0.0
  0
SPLINE
  5
1d1
100
AcDbEntity
  8
Layer_1
 62
7
100
AcDbSpline
 70
8
 71
3
 72
8
 73
4
 74
0
 40
0
 40
0
 40
0
 40
0
 40
1
 40
1
 40
1
 40
1
 10
188.471072
 20
18.024751
 30
0.0
 10
190.061822
 20
18.029751
 30
0.0
 10
190.423442
 20
18.021751
 30
0.0
 10
191.849672
 20
18.012551
 30
0.0
  0
SPLINE
  5
1d2
100
AcDbEntity
  8
Layer_1
 62
7
100
AcDbSpline
 70
8
 71
3
 72
8
 73
4
 74
0
 40
0
 40
0
 40
0
 40
0
 40
1
 40
1
 40
1
 40
1
 10
191.849672
 20
18.012551
 30
0.0
 10
192.794482
 20
14.204531
 30
0.0
 10
193.843032
 20
10.111551
 30
0.0
 10
194.239452
 20
8.768851
 30
0.0
  0
SPLINE
  5
1d3
100
AcDbEntity
  8
Layer_1
 62
7
100
AcDbSpline
 70
8
 71
3
 72
8
 73
4
 74
0
 40
0
 40
0
 40
0
 40
0
 40
1
 40
1
 40
1
 40
1
 10
194.239452
 20
8.768851
 30
0.0
 10
194.394982
 20
8.996591
 30
0.0
 10
195.588741
 20
11.229631
 30
0.0
 10
196.782601
 20
13.629081
 30
0.0
  0
LWPOLYLINE
  5
1d4
100
AcDbEntity
  8
Layer_1
 62
7
100
AcDbPolyline
 90
2
 70
0
 10
186.110052
 20
10.318761
 30
0.0
 10
188.471072
 20
18.024751
 30
0.0
  0
SPLINE
  5
1d5
100
AcDbEntity
  8
Layer_1
 62
7
100
AcDbSpline
 70
8
 71
3
 72
8
 73
4
 74
0
 40
0
 40
0
 40
0
 40
0
 40
1
 40
1
 40
1
 40
1
 10
198.953251
 20
17.991731
 30
0.0
 10
200.055771
 20
17.991731
 30
0.0
 10
201.158281
 20
17.991731
 30
0.0
 10
202.260801
 20
17.991731
 30
0.0
  0
LWPOLYLINE
  5
1d6
100
AcDbEntity
  8
Layer_1
 62
7
100
AcDbPolyline
 90
2
 70
0
 10
196.782601
 20
13.629081
 30
0.0
 10
198.953251
 20
17.991731
 30
0.0
  0
SPLINE
  5
1d7
100
AcDbEntity
  8
Layer_1
 62
7
100
AcDbSpline
 70
8
 71
3
 72
8
 73
4
 74
0
 40
0
 40
0
 40
0
 40
0
 40
1
 40
1
 40
1
 40
1
 10
202.426261
 20
13.559961
 30
0.0
 10
202.517261
 20
11.122481
 30
0.0
 10
202.662661
 20
7.669671
 30
0.0
 10
202.749361
 20
5.887041
 30
0.0
  0
LWPOLYLINE
  5
1d8
100
AcDbEntity
  8
Layer_1
 62
7
100
AcDbPolyline
 90
2
 70
0
 10
202.260801
 20
17.991731
 30
0.0
 10
202.426261
 20
13.559961
 30
0.0
  0
SPLINE
  5
1d9
100
AcDbEntity
  8
Layer_1
 62
7
100
AcDbSpline
 70
8
 71
3
 72
8
 73
4
 74
0
 40
0
 40
0
 40
0
 40
0
 40
1
 40
1
 40
1
 40
1
 10
199.738931
 20
7.825191
 30
0.0
 10
199.639131
 20
10.673801
 30
0.0
 10
199.472721
 20
12.906221
 30
0.0
 10
199.369051
 20
12.786121
 30
0.0
  0
SPLINE
  5
1da
100
AcDbEntity
  8
Layer_1
 62
7
100
AcDbSpline
 70
8
 71
3
 72
8
 73
4
 74
0
 40
0
 40
0
 40
0
 40
0
 40
1
 40
1
 40
1
 40
1
 10
199.369051
 20
12.786121
 30
0.0
 10
199.265371
 20
12.666031
 30
0.0
 10
198.042371
 20
10.335351
 30
0.0
 10
196.651291
 20
7.606831
 30
0.0
  0
LWPOLYLINE
  5
1db
100
AcDbEntity
  8
Layer_1
 62
7
100
AcDbPolyline
 90
5
 70
0
 10
202.749361
 20
5.887041
 30
0.0
 10
202.906981
 20
2.645891
 30
0.0
 10
201.413651
 20
2.645891
 30
0.0
 10
199.920311
 20
2.645891
 30
0.0
 10
199.738931
 20
7.825191
 30
0.0
  0
SPLINE
  5
1dc
100
AcDbEntity
  8
Layer_1
 62
7
100
AcDbSpline
 70
8
 71
3
 72
8
 73
4
 74
0
 40
0
 40
0
 40
0
 40
0
 40
1
 40
1
 40
1
 40
1
 10
192.478232
 20
3.638091
 30
0.0
 10
192.345762
 20
4.183791
 30
0.0
 10
191.763502
 20
6.583751
 30
0.0
 10
191.184312
 20
8.971331
 30
0.0
  0
SPLINE
  5
1dd
100
AcDbEntity
  8
Layer_1
 62
7
100
AcDbSpline
 70
8
 71
3
 72
8
 73
4
 74
0
 40
0
 40
0
 40
0
 40
0
 40
1
 40
1
 40
1
 40
1
 10
191.184312
 20
8.971331
 30
0.0
 10
190.605132
 20
11.358911
 30
0.0
 10
190.076752
 20
13.144851
 30
0.0
 10
190.010162
 20
12.940081
 30
0.0
  0
SPLINE
  5
1de
100
AcDbEntity
  8
Layer_1
 62
7
100
AcDbSpline
 70
8
 71
3
 72
8
 73
4
 74
0
 40
0
 40
0
 40
0
 40
0
 40
1
 40
1
 40
1
 40
1
 10
190.010162
 20
12.940081
 30
0.0
 10
189.943562
 20
12.735311
 30
0.0
 10
189.208362
 20
10.365121
 30
0.0
 10
188.376382
 20
7.672981
 30
0.0
  0
LWPOLYLINE
  5
1df
100
AcDbEntity
  8
Layer_1
 62
7
100
AcDbPolyline
 90
5
 70
0
 10
196.651291
 20
7.606831
 30
0.0
 10
194.122032
 20
2.645901
 30
0.0
 10
193.420562
 20
2.645901
 30
0.0
 10
192.719092
 20
2.645901
 30
0.0
 10
192.478232
 20
3.638091
 30
0.0
  0
SPLINE
  5
1e0
100
AcDbEntity
  8
Layer_1
 62
7
100
AcDbSpline
 70
8
 71
3
 72
8
 73
4
 74
0
 40
0
 40
0
 40
0
 40
0
 40
1
 40
1
 40
1
 40
1
 10
185.466432
 20
2.649261
 30
0.0
 10
184.562612
 20
2.639261
 30
0.0
 10
183.806512
 20
2.656261
 30
0.0
 10
183.809602
 20
2.699361
 30
0.0
  0
LWPOLYLINE
  5
1e1
100
AcDbEntity
  8
Layer_1
 62
7
100
AcDbPolyline
 90
3
 70
0
 10
188.376382
 20
7.672981
 30
0.0
 10
186.848062
 20
2.661261
 30
0.0
 10
185.466432
 20
2.649261
 30
0.0
  0
SPLINE
  5
1e2
100
AcDbEntity
  8
Layer_1
 62
7
100
AcDbSpline
 70
8
 71
3
 72
8
 73
4
 74
0
 40
0
 40
0
 40
0
 40
0
 40
1
 40
1
 40
1
 40
1
 10
150.067363
 20
2.878031
 30
0.0
 10
146.865323
 20
3.573821
 30
0.0
 10
144.980903
 20
6.081971
 30
0.0
 10
144.956103
 20
9.681041
 30
0.0
  0
SPLINE
  5
1e3
100
AcDbEntity
  8
Layer_1
 62
7
100
AcDbSpline
 70
8
 71
3
 72
8
 73
4
 74
0
 40
0
 40
0
 40
0
 40
0
 40
1
 40
1
 40
1
 40
1
 10
144.956103
 20
9.681041
 30
0.0
 10
144.918303
 20
15.163801
 30
0.0
 10
149.227273
 20
18.907841
 30
0.0
 10
155.001173
 20
18.409201
 30
0.0
  0
SPLINE
  5
1e4
100
AcDbEntity
  8
Layer_1
 62
7
100
AcDbSpline
 70
8
 71
3
 72
8
 73
4
 74
0
 40
0
 40
0
 40
0
 40
0
 40
1
 40
1
 40
1
 40
1
 10
155.001173
 20
18.409201
 30
0.0
 10
157.506742
 20
18.192811
 30
0.0
 10
157.574202
 20
18.142761
 30
0.0
 10
157.452162
 20
16.590701
 30
0.0
  0
SPLINE
  5
1e5
100
AcDbEntity
  8
Layer_1
 62
7
100
AcDbSpline
 70
8
 71
3
 72
8
 73
4
 74
0
 40
0
 40
0
 40
0
 40
0
 40
1
 40
1
 40
1
 40
1
 10
157.452162
 20
16.590701
 30
0.0
 10
157.396462
 20
15.881771
 30
0.0
 10
157.309702
 20
15.251511
 30
0.0
 10
157.259482
 20
15.190131
 30
0.0
  0
SPLINE
  5
1e6
100
AcDbEntity
  8
Layer_1
 62
7
100
AcDbSpline
 70
8
 71
3
 72
8
 73
4
 74
0
 40
0
 40
0
 40
0
 40
0
 40
1
 40
1
 40
1
 40
1
 10
157.259482
 20
15.190131
 30
0.0
 10
157.209282
 20
15.128731
 30
0.0
 10
156.732342
 20
15.201331
 30
0.0
 10
156.199693
 20
15.351341
 30
0.0
  0
SPLINE
  5
1e7
100
AcDbEntity
  8
Layer_1
 62
7
100
AcDbSpline
 70
8
 71
3
 72
8
 73
4
 74
0
 40
0
 40
0
 40
0
 40
0
 40
1
 40
1
 40
1
 40
1
 10
156.199693
 20
15.351341
 30
0.0
 10
155.667033
 20
15.501391
 30
0.0
 10
154.439663
 20
15.576361
 30
0.0
 10
153.472193
 20
15.517941
 30
0.0
  0
SPLINE
  5
1e8
100
AcDbEntity
  8
Layer_1
 62
7
100
AcDbSpline
 70
8
 71
3
 72
8
 73
4
 74
0
 40
0
 40
0
 40
0
 40
0
 40
1
 40
1
 40
1
 40
1
 10
153.472193
 20
15.517941
 30
0.0
 10
152.069653
 20
15.433241
 30
0.0
 10
151.457233
 20
15.254291
 30
0.0
 10
150.450343
 20
14.634941
 30
0.0
  0
SPLINE
  5
1e9
100
AcDbEntity
  8
Layer_1
 62
7
100
AcDbSpline
 70
8
 71
3
 72
8
 73
4
 74
0
 40
0
 40
0
 40
0
 40
0
 40
1
 40
1
 40
1
 40
1
 10
150.450343
 20
14.634941
 30
0.0
 10
148.643703
 20
13.523651
 30
0.0
 10
147.912033
 20
12.294311
 30
0.0
 10
147.802143
 20
10.185521
 30
0.0
  0
SPLINE
  5
1ea
100
AcDbEntity
  8
Layer_1
 62
7
100
AcDbSpline
 70
8
 71
3
 72
8
 73
4
 74
0
 40
0
 40
0
 40
0
 40
0
 40
1
 40
1
 40
1
 40
1
 10
147.802143
 20
10.185521
 30
0.0
 10
147.639143
 20
7.057241
 30
0.0
 10
148.843133
 20
5.656071
 30
0.0
 10
151.694203
 20
5.656071
 30
0.0
  0
SPLINE
  5
1eb
100
AcDbEntity
  8
Layer_1
 62
7
100
AcDbSpline
 70
8
 71
3
 72
8
 73
4
 74
0
 40
0
 40
0
 40
0
 40
0
 40
1
 40
1
 40
1
 40
1
 10
151.694203
 20
5.656071
 30
0.0
 10
152.606883
 20
5.656071
 30
0.0
 10
153.401593
 20
5.715571
 30
0.0
 10
153.460223
 20
5.788361
 30
0.0
  0
SPLINE
  5
1ec
100
AcDbEntity
  8
Layer_1
 62
7
100
AcDbSpline
 70
8
 71
3
 72
8
 73
4
 74
0
 40
0
 40
0
 40
0
 40
0
 40
1
 40
1
 40
1
 40
1
 10
153.460223
 20
5.788361
 30
0.0
 10
153.518823
 20
5.861161
 30
0.0
 10
153.635723
 20
6.486201
 30
0.0
 10
153.719923
 20
7.177421
 30
0.0
  0
LWPOLYLINE
  5
1ed
100
AcDbEntity
  8
Layer_1
 62
7
100
AcDbPolyline
 90
1
 70
1
 10
183.809602
 20
2.699361
 30
0.0
  0
SPLINE
  5
1ee
100
AcDbEntity
  8
Layer_1
 62
7
100
AcDbSpline
 70
8
 71
3
 72
8
 73
4
 74
0
 40
0
 40
0
 40
0
 40
0
 40
1
 40
1
 40
1
 40
1
 10
151.661673
 20
9.161801
 30
0.0
 10
151.663673
 20
9.561981
 30
0.0
 10
151.723373
 20
10.157291
 30
0.0
 10
151.795183
 20
10.484721
 30
0.0
  0
LWPOLYLINE
  5
1ef
100
AcDbEntity
  8
Layer_1
 62
7
100
AcDbPolyline
 90
5
 70
0
 10
153.719923
 20
7.177421
 30
0.0
 10
153.873023
 20
8.434201
 30
0.0
 10
152.765843
 20
8.434201
 30
0.0
 10
151.658673
 20
8.434201
 30
0.0
 10
151.661673
 20
9.161801
 30
0.0
  0
SPLINE
  5
1f0
100
AcDbEntity
  8
Layer_1
 62
7
100
AcDbSpline
 70
8
 71
3
 72
8
 73
4
 74
0
 40
0
 40
0
 40
0
 40
0
 40
1
 40
1
 40
1
 40
1
 10
154.269413
 20
11.080031
 30
0.0
 10
155.558433
 20
11.080031
 30
0.0
 10
156.655093
 20
10.990731
 30
0.0
 10
156.706442
 20
10.881591
 30
0.0
  0
SPLINE
  5
1f1
100
AcDbEntity
  8
Layer_1
 62
7
100
AcDbSpline
 70
8
 71
3
 72
8
 73
4
 74
0
 40
0
 40
0
 40
0
 40
0
 40
1
 40
1
 40
1
 40
1
 10
156.706442
 20
10.881591
 30
0.0
 10
156.757842
 20
10.772451
 30
0.0
 10
156.602553
 20
8.991991
 30
0.0
 10
156.361463
 20
6.925011
 30
0.0
  0
LWPOLYLINE
  5
1f2
100
AcDbEntity
  8
Layer_1
 62
7
100
AcDbPolyline
 90
3
 70
0
 10
151.795183
 20
10.484721
 30
0.0
 10
151.925743
 20
11.080031
 30
0.0
 10
154.269413
 20
11.080031
 30
0.0
  0
SPLINE
  5
1f3
100
AcDbEntity
  8
Layer_1
 62
7
100
AcDbSpline
 70
8
 71
3
 72
8
 73
4
 74
0
 40
0
 40
0
 40
0
 40
0
 40
1
 40
1
 40
1
 40
1
 10
155.360683
 20
3.034151
 30
0.0
 10
154.164343
 20
2.751851
 30
0.0
 10
151.068303
 20
2.660531
 30
0.0
 10
150.067413
 20
2.878031
 30
0.0
  0
LWPOLYLINE
  5
1f4
100
AcDbEntity
  8
Layer_1
 62
7
100
AcDbPolyline
 90
3
 70
0
 10
156.361463
 20
6.925011
 30
0.0
 10
155.923133
 20
3.166871
 30
0.0
 10
155.360683
 20
3.034151
 30
0.0
  0
LWPOLYLINE
  5
1f5
100
AcDbEntity
  8
Layer_1
 62
7
100
AcDbPolyline
 90
1
 70
1
 10
150.067413
 20
2.878031
 30
0.0
  0
ENDSEC
  0
SECTION
  2
OBJECTS
  0
DICTIONARY
  5
C
330
0
100
AcDbDictionary
  3
ACAD_GROUP
350
D
  3
ACAD_MLINESTYLE
350
17
  0
DICTIONARY
  5
D
330
C
100
AcDbDictionary
  0
DICTIONARY
  5
1A
330
C
100
AcDbDictionary
  0
DICTIONARY
  5
17
330
C
100
AcDbDictionary
  3
STANDARD
350
18
  0
DICTIONARY
  5
19
330
C
100
AcDbDictionary
  0
ENDSEC
  0
EOF
