<?xml version="1.0" encoding="UTF-8" standalone="no"?>
<!-- Created with Inkscape (http://www.inkscape.org/) -->

<svg
   xmlns:dc="http://purl.org/dc/elements/1.1/"
   xmlns:cc="http://creativecommons.org/ns#"
   xmlns:rdf="http://www.w3.org/1999/02/22-rdf-syntax-ns#"
   xmlns:svg="http://www.w3.org/2000/svg"
   xmlns="http://www.w3.org/2000/svg"
   xmlns:sodipodi="http://sodipodi.sourceforge.net/DTD/sodipodi-0.dtd"
   xmlns:inkscape="http://www.inkscape.org/namespaces/inkscape"
   width="876.18744"
   height="79.746185"
   viewBox="0 0 231.82459 21.099512"
   version="1.1"
   id="svg8"
   inkscape:version="0.92.4 (5da689c313, 2019-01-14)"
   sodipodi:docname="logo.svg">
  <defs
     id="defs2" />
  <sodipodi:namedview
     id="base"
     pagecolor="#ffffff"
     bordercolor="#666666"
     borderopacity="1.0"
     inkscape:pageopacity="0.0"
     inkscape:pageshadow="2"
     inkscape:zoom="1.4"
     inkscape:cx="457.00806"
     inkscape:cy="157.26396"
     inkscape:document-units="mm"
     inkscape:current-layer="layer1"
     showgrid="false"
     units="px"
     fit-margin-top="10"
     fit-margin-left="10"
     fit-margin-right="10"
     fit-margin-bottom="10"
     inkscape:window-width="1840"
     inkscape:window-height="1177"
     inkscape:window-x="1912"
     inkscape:window-y="-8"
     inkscape:window-maximized="1" />
  <metadata
     id="metadata5">
    <rdf:RDF>
      <cc:Work
         rdf:about="">
        <dc:format>image/svg+xml</dc:format>
        <dc:type
           rdf:resource="http://purl.org/dc/dcmitype/StillImage" />
        <dc:title></dc:title>
      </cc:Work>
    </rdf:RDF>
  </metadata>
  <g
     inkscape:label="Layer 1"
     inkscape:groupmode="layer"
     id="layer1"
     transform="translate(3.8898066,-138.73498)">
    <path
       style="fill:#000000;stroke-width:0.23934744"
       d="m 3.8675392,157.02327 c -3.20203702,-0.69579 -5.086465,-3.20394 -5.111266,-6.80301 -0.03778,-5.48275 4.271173,-9.2268 10.045071,-8.72815 2.5055708,0.21639 2.5730308,0.26644 2.4509898,1.81849 -0.05574,0.70894 -0.142452,1.3392 -0.192681,1.40058 -0.05023,0.0614 -0.527135,-0.0112 -1.0597898,-0.16122 -0.532654,-0.15005 -1.760026,-0.22502 -2.727493,-0.16659 -1.402541,0.0847 -2.01496,0.26364 -3.021855,0.883 -1.806636,1.11129 -2.538309,2.34063 -2.648194,4.44942 -0.163007,3.12827 1.04099,4.52944 3.892056,4.52944 0.912682,0 1.707393,-0.0595 1.766025,-0.13229 0.05863,-0.0728 0.175496,-0.69783 0.2597,-1.38906 l 0.153097,-1.25677 h -1.107177 -1.107177 l 0.003,-0.7276 c 0.0017,-0.40019 0.0617,-0.9955 0.133512,-1.32292 l 0.130557,-0.59531 h 2.343673 c 1.28902,0 2.3856828,0.0893 2.4370298,0.19843 0.05135,0.10915 -0.103893,1.88961 -0.344976,3.95658 l -0.4383318,3.75814 -0.56245,0.13272 c -1.196339,0.2823 -4.292383,0.37362 -5.293276,0.15612 z"
       id="path82"
       inkscape:connector-curvature="0" />
    <path
       id="path76"
       style="fill:#000000;stroke-width:0.25569889"
       d="m 18.209671,150.47492 c -0.03777,-1.76384 -0.598291,-5.76303 -0.767958,-5.47917 -0.09058,0.15154 -0.438048,1.0445 -0.772168,1.98438 -0.334121,0.93987 -0.830308,2.33846 -1.125688,3.09792 l -0.518196,1.38906 h 1.602626 1.602628 z m -5.74321,-0.26458 c 1.7085,-3.74716 3.287028,-7.25504 3.48444,-7.80521 l 0.378081,-0.99219 h 1.692305 c 0.930767,0 1.069007,0.003 1.620598,0.003 0.07171,0.32797 2.208252,13.74382 2.436141,14.87982 l 0.145963,0.72761 h -1.591384 -1.591384 l -0.219818,-1.65365 -0.219819,-1.65364 -2.24501,-0.0755 -2.24501,-0.0755 -0.68637,1.72914 -0.68637,1.72914 H 11.049462 9.3601012 Z"
       inkscape:connector-curvature="0"
       sodipodi:nodetypes="ccscccccsccscccccccccccccs" />
    <path
       style="fill:#000000;stroke-width:0.25569889"
       d="m 20.857695,156.96984 c 0.0031,-0.0433 1.038294,-3.47205 2.300452,-7.6194 l 2.361021,-7.70599 c 1.590746,-0.005 1.952373,0.003 3.378599,0.0122 0.944808,3.80802 1.993365,7.90101 2.389783,9.24371 0.15553,-0.22774 1.349286,-2.46078 2.543145,-4.86024 l 2.170654,-4.36264 c 1.102516,0 2.205033,0 3.30755,0 l 0.165459,4.43177 c 0.091,2.43747 0.236395,5.89029 0.323093,7.67291 l 0.157633,3.24115 h -1.493339 -1.49334 l -0.181376,-5.17929 c -0.09976,-2.84861 -0.266207,-5.08103 -0.369886,-4.96094 -0.103679,0.1201 -1.32667,2.45078 -2.717757,5.17929 l -2.529249,4.96094 h -0.701476 -0.701474 l -0.240856,-0.99219 c -0.132473,-0.5457 -0.714737,-2.94566 -1.293923,-5.33324 -0.579188,-2.38758 -1.107554,-4.17352 -1.174149,-3.96875 -0.06659,0.20477 -0.801798,2.57496 -1.633786,5.2671 l -1.528308,5.01172 -1.381632,0.012 c -0.90382,0.01 -1.659929,-0.007 -1.656838,-0.0501 z"
       id="path74"
       inkscape:connector-curvature="0"
       sodipodi:nodetypes="cscccsccsscccsssccccccccccc" />
    <path
       style="fill:#000000;stroke-width:0.25569889"
       d="m 39.944968,157.02574 c 1.53e-4,-0.25216 1.768056,-13.325 1.950895,-14.47648 l 0.13654,-0.8599 h 4.436831 c 4.82226,0 2.83791,0.039 4.388271,0.0246 l -0.39271,2.3567 h -2.782448 -2.914831 l -0.129964,0.72761 c -0.07148,0.40018 -0.201291,1.23362 -0.288467,1.85208 l -0.158505,1.12448 h 2.647294 2.647294 c -0.11882,0.88086 -0.207482,1.75211 -0.308891,2.64583 h -2.580099 c -1.419055,0 -2.170659,0.0314 -2.708693,0.0314 -0.10115,0.6938 -0.177263,1.16916 -0.274885,2.15142 l -0.177492,1.78593 h 3.611922 2.129247 c -0.108306,1.0885 -0.194951,1.81275 -0.29999,2.64584 h -3.680253 c -2.83961,0 -4.953271,-7.1e-4 -5.251066,-0.009 z"
       id="path72"
       inkscape:connector-curvature="0"
       sodipodi:nodetypes="cccsccccccccccsccccccscc" />
    <path
       style="fill:#000000;stroke-width:0.25569889"
       d="m 72.592546,157.01981 c 0.03877,-0.28169 1.70738,-13.3309 1.890219,-14.48239 l 0.13654,-0.85989 h 1.471478 c 0.809313,0 1.289454,0.006 1.510091,0.006 -0.761876,5.02655 -1.424635,10.29998 -2.054782,15.34007 h -1.463044 c -0.804671,0 -1.203617,-0.004 -1.490502,-0.004 z"
       id="path68"
       inkscape:connector-curvature="0"
       sodipodi:nodetypes="cscsccsc" />
    <path
       style="fill:#000000;stroke-width:0.25569889"
       d="m 106.82585,142.53738 0.13654,-0.85989 h 1.47147 c 0.80932,0 1.30162,0.004 1.56525,0.004 -0.0437,0.34892 -0.39149,2.95879 -0.8351,6.08167 -0.34676,2.44106 -0.67091,4.37968 -0.98404,6.61458 h 3.48398 3.24128 c -0.13118,1.10882 -0.20688,1.71157 -0.30511,2.64584 h -4.8187 c -2.65028,0 -4.59774,0.002 -4.8551,10e-4 0.61499,-4.85223 1.17863,-9.69532 1.89953,-14.48732 z"
       id="path58"
       inkscape:connector-curvature="0"
       sodipodi:nodetypes="ccscsccccsccc" />
    <path
       id="path52"
       style="fill:#000000;stroke-width:0.25569889"
       d="m 137.26684,150.47488 c -0.0377,-1.76384 -0.59829,-5.76303 -0.76796,-5.47917 -0.0906,0.15153 -0.43805,1.0445 -0.77217,1.98438 -0.33411,0.93987 -0.84068,2.33393 -1.12568,3.09792 l -0.51821,1.38906 h 1.60263 1.60264 l -0.0213,-0.99219 z m -5.74321,-0.26458 c 1.7085,-3.74716 3.27649,-7.25951 3.48444,-7.80521 l 0.37808,-0.99219 h 1.69231 c 0.93077,0 1.6923,0.11031 1.6923,0.24513 0,0.27482 2.13654,13.50168 2.36443,14.63768 l 0.14596,0.72761 h -1.59138 -1.59137 l -0.21983,-1.65365 -0.21982,-1.65364 -2.24501,-0.0755 -2.24501,-0.0755 -0.68637,1.72914 -0.68637,1.72914 h -1.68935 -1.68937 z"
       inkscape:connector-curvature="0" />
    <path
       id="path40"
       style="fill:#000000;stroke-width:0.25569889"
       d="m 206.36276,150.64022 c -0.0377,-1.76384 -0.59829,-5.76303 -0.76796,-5.47917 -0.0906,0.15153 -0.43804,1.0445 -0.77217,1.98437 -0.33411,0.93988 -0.84067,2.33394 -1.12568,3.09793 l -0.5182,1.38906 h 1.60263 1.60263 l -0.0213,-0.99219 z m -5.7432,-0.26458 c 1.70849,-3.74716 3.27649,-7.25951 3.48443,-7.80521 l 0.37808,-0.99219 h 1.69231 c 0.93076,0 1.6923,0.11031 1.6923,0.24513 0,0.27481 2.13654,13.50168 2.36442,14.63768 l 0.14597,0.72761 h -1.59138 -1.59138 l -0.21982,-1.65365 -0.21982,-1.65365 -2.24501,-0.0755 -2.245,-0.0755 -0.68637,1.72915 -0.68638,1.72914 h -1.68935 -1.68937 z"
       inkscape:connector-curvature="0" />
    <path
       style="fill:#000000;stroke-width:0.25569889"
       d="m 212.07784,142.70271 0.13653,-0.8599 1.53326,0.003 1.53326,0.003 2.81072,4.90263 c 1.5459,2.69644 2.86384,4.84576 2.92875,4.77626 0.10685,-0.11442 1.27782,-8.56861 1.29571,-9.35494 0.006,-0.22694 0.47283,-0.33073 1.49022,-0.33073 h 1.48267 l -0.0106,0.59531 c -0.006,0.32743 -0.42395,3.75047 -0.92895,7.60677 l -0.91817,7.01146 -1.48043,0.0664 -1.4804,0.0664 -2.82756,-5.04317 c -1.55516,-2.77375 -2.89736,-5.08937 -2.98268,-5.14583 -0.0854,-0.0565 -0.40581,1.94497 -0.71218,4.44762 -0.3064,2.50264 -0.61645,4.81814 -0.68903,5.14557 l -0.13195,0.59531 h -1.45589 c -0.80075,0 -1.33103,-0.002 -1.48697,-0.002 0.62872,-4.80393 1.17312,-9.69359 1.89373,-14.4838 z"
       id="path33"
       inkscape:connector-curvature="0"
       sodipodi:nodetypes="cccccccsccsccccccccscc" />
    <path
       d="m 85.020525,154.02002 c 1.086384,-0.48601 2.337502,-2.07347 2.538567,-3.22102 0.266881,-1.52315 -0.0065,-3.77462 -0.55476,-4.56842 -0.730738,-1.05807 -2.350783,-2.03188 -3.94816,-2.03628 l -1.55873,-0.004 c -0.472052,3.62247 -0.936297,7.15705 -1.347044,10.18748 h 2.086243 c 1.108025,0 2.337829,-0.15791 2.783884,-0.35746 z m -6.350583,-11.61493 0.138452,-0.7276 h 3.147982 c 4.038055,0 5.311373,0.37923 6.935761,2.06571 3.328547,3.45576 2.358983,10.17435 -1.81305,12.56351 0,0 -1.406768,0.68443 -2.408649,0.68443 -2.376525,0 -3.205843,-0.0134 -3.205843,-0.0134 -2.548355,0.0477 -4.290137,0.0296 -4.687972,0.0296 0.100814,-0.75848 1.108689,-9.87547 1.893319,-14.6023 z"
       style="fill:#000000;stroke-width:0.25569889"
       id="path90"
       inkscape:connector-curvature="0"
       sodipodi:nodetypes="ccccccscccsscscccc" />
    <path
       sodipodi:nodetypes="cscccsccsscccsssccccccccccc"
       inkscape:connector-curvature="0"
       id="path94"
       d="m 53.569248,156.96978 c 0.0031,-0.0433 1.038294,-3.47205 2.300452,-7.6194 l 2.361021,-7.70599 c 1.590746,-0.005 1.952373,0.003 3.378599,0.0123 0.944808,3.80802 1.993365,7.901 2.389783,9.2437 0.15553,-0.22774 1.349285,-2.46078 2.543145,-4.86023 l 2.170654,-4.36264 c 1.102516,0 2.205033,0 3.307549,0 l 0.16546,4.43177 c 0.09101,2.43747 0.236394,5.89028 0.323093,7.67291 l 0.157633,3.24115 h -1.49334 -1.49334 l -0.181376,-5.1793 c -0.09976,-2.8486 -0.266206,-5.08103 -0.369885,-4.96093 -0.103679,0.12009 -1.326671,2.45077 -2.717757,5.17929 l -2.529249,4.96094 h -0.701476 -0.701475 l -0.240856,-0.99219 c -0.132472,-0.5457 -0.714737,-2.94567 -1.293922,-5.33325 -0.579188,-2.38758 -1.107555,-4.17352 -1.174149,-3.96875 -0.06659,0.20477 -0.801799,2.57497 -1.633786,5.2671 l -1.528308,5.01173 -1.381633,0.012 c -0.90382,0.01 -1.659929,-0.007 -1.656837,-0.0501 z"
       style="fill:#000000;stroke-width:0.25569889" />
    <path
       sodipodi:nodetypes="ccccccscccsscscccc"
       inkscape:connector-curvature="0"
       id="path96"
       style="fill:#000000;stroke-width:0.25569889"
       d="m 99.105956,154.02006 c 1.086384,-0.48601 2.337504,-2.07347 2.538564,-3.22102 0.26688,-1.52315 -0.007,-3.77462 -0.55476,-4.56842 -0.73073,-1.05807 -2.35078,-2.03188 -3.948157,-2.03628 l -1.55873,-0.004 c -0.472052,3.62247 -0.936298,7.15705 -1.347044,10.18748 h 2.086243 c 1.108024,0 2.337829,-0.15791 2.783884,-0.35746 z m -6.350583,-11.61493 0.138452,-0.7276 h 3.147982 c 4.038053,0 5.311373,0.37923 6.935763,2.06571 3.32855,3.45576 2.35898,10.17435 -1.81305,12.56351 0,0 -1.40677,0.68443 -2.408651,0.68443 -2.376525,0 -3.205843,-0.0134 -3.205843,-0.0134 -2.548355,0.0477 -4.290138,0.0296 -4.687972,0.0296 0.100814,-0.75848 1.108689,-9.87547 1.893319,-14.6023 z" />
    <path
       d="m 171.43996,154.01998 c 1.08639,-0.48601 2.33751,-2.07347 2.53857,-3.22102 0.26688,-1.52315 -0.007,-3.77462 -0.55476,-4.56842 -0.73074,-1.05807 -2.35078,-2.03188 -3.94816,-2.03628 l -1.55873,-0.004 c -0.47206,3.62247 -0.93629,7.15705 -1.34705,10.18748 h 2.08625 c 1.10802,0 2.33783,-0.15791 2.78388,-0.35746 z m -6.35058,-11.61493 0.13845,-0.7276 h 3.14798 c 4.03806,0 5.31138,0.37923 6.93577,2.06571 3.32854,3.45576 2.35898,10.17435 -1.81305,12.56351 0,0 -1.40678,0.68443 -2.40866,0.68443 -2.37652,0 -3.20584,-0.0134 -3.20584,-0.0134 -2.54835,0.0477 -4.29013,0.0296 -4.68796,0.0296 0.10081,-0.75848 1.10868,-9.87547 1.89331,-14.6023 z"
       style="fill:#000000;stroke-width:0.25569889"
       id="path98"
       inkscape:connector-curvature="0"
       sodipodi:nodetypes="ccccccscccsscscccc" />
    <path
       sodipodi:nodetypes="cccsccccccccccsccccccscc"
       inkscape:connector-curvature="0"
       id="path100"
       d="m 115.25367,157.01387 c 1.5e-4,-0.25216 1.76804,-13.325 1.95088,-14.47649 l 0.13654,-0.85989 h 4.4368 c 4.82224,0 2.8379,0.039 4.38825,0.0246 l -0.39271,2.3567 h -2.78243 -2.91482 l -0.12996,0.7276 c -0.0714,0.40019 -0.20128,1.23362 -0.28846,1.85209 l -0.1585,1.12448 h 2.64727 2.64728 c -0.11882,0.88086 -0.20748,1.7521 -0.30888,2.64583 h -2.58009 c -1.41905,0 -2.17064,0.0314 -2.70868,0.0314 -0.10115,0.69379 -0.17726,1.16915 -0.27488,2.15142 l -0.17749,1.78592 h 3.61189 2.12925 c -0.10832,1.0885 -0.19496,1.81275 -0.29999,2.64584 h -3.68023 c -2.8396,0 -4.95325,-7.1e-4 -5.25104,-0.009 z"
       style="fill:#000000;stroke-width:0.25569889" />
    <path
       style="fill:#000000;stroke-width:0.25569889"
       d="m 153.23903,157.01387 c 1.5e-4,-0.25216 1.76805,-13.32501 1.9509,-14.47649 l 0.13654,-0.8599 h 4.43683 c 4.82226,0 2.83791,0.039 4.38826,0.0246 l -0.3927,2.35671 h -2.78245 -2.91483 l -0.12997,0.7276 c -0.0714,0.40018 -0.20128,1.23362 -0.28846,1.85208 l -0.15851,1.12448 h 2.6473 2.64729 c -0.11882,0.88086 -0.20749,1.75211 -0.30889,2.64584 h -2.5801 c -1.41905,0 -2.17066,0.0314 -2.7087,0.0314 -0.10115,0.69379 -0.17725,1.16915 -0.27487,2.15141 l -0.17749,1.78593 h 3.61191 2.12925 c -0.10831,1.0885 -0.19495,1.81275 -0.29999,2.64584 h -3.68025 c -2.83961,0 -4.95327,-7.1e-4 -5.25107,-0.009 z"
       id="path102"
       inkscape:connector-curvature="0"
       sodipodi:nodetypes="cccsccccccccccsccccccscc" />
    <path
       sodipodi:nodetypes="cscccsccsscccsssccccccccccc"
       inkscape:connector-curvature="0"
       id="path104"
       d="m 179.9198,157.13512 c 0.003,-0.0433 1.03829,-3.47205 2.30045,-7.61939 l 2.36102,-7.70599 c 1.59075,-0.005 1.95237,0.003 3.3786,0.0122 0.94481,3.80802 1.99336,7.901 2.38978,9.2437 0.15553,-0.22774 1.34929,-2.46078 2.54315,-4.86023 l 2.17065,-4.36265 c 1.10252,0 2.20503,0 3.30755,0 l 0.16546,4.43177 c 0.091,2.43748 0.2364,5.89029 0.3231,7.67292 l 0.15762,3.24115 h -1.49333 -1.49334 l -0.18138,-5.1793 c -0.0998,-2.84861 -0.26621,-5.08103 -0.36988,-4.96093 -0.10368,0.12009 -1.32668,2.45077 -2.71776,5.17929 l -2.52926,4.96093 h -0.70147 -0.70147 l -0.24086,-0.99219 c -0.13247,-0.5457 -0.71473,-2.94566 -1.29392,-5.33324 -0.57918,-2.38758 -1.10756,-4.17352 -1.17415,-3.96875 -0.0666,0.20477 -0.8018,2.57496 -1.63378,5.2671 l -1.52832,5.01172 -1.38163,0.012 c -0.90382,0.01 -1.65992,-0.007 -1.65683,-0.0501 z"
       style="fill:#000000;stroke-width:0.25569889" />
    <path
       inkscape:connector-curvature="0"
       id="path106"
       d="m 146.17756,156.95646 c -3.20204,-0.69579 -5.08646,-3.20394 -5.11126,-6.80301 -0.0378,-5.48276 4.27117,-9.2268 10.04507,-8.72816 2.50557,0.21639 2.57303,0.26644 2.45099,1.8185 -0.0557,0.70893 -0.14246,1.33919 -0.19268,1.40057 -0.0502,0.0614 -0.52714,-0.0112 -1.05979,-0.16121 -0.53266,-0.15005 -1.76003,-0.22502 -2.7275,-0.1666 -1.40254,0.0847 -2.01496,0.26365 -3.02185,0.883 -1.80664,1.11129 -2.53831,2.34063 -2.6482,4.44942 -0.163,3.12828 1.04099,4.52945 3.89206,4.52945 0.91268,0 1.70739,-0.0595 1.76602,-0.13229 0.0586,-0.0728 0.1755,-0.69784 0.2597,-1.38906 l 0.1531,-1.25678 h -1.10718 -1.10717 l 0.003,-0.7276 c 0.002,-0.40018 0.0617,-0.99549 0.13351,-1.32292 l 0.13056,-0.59531 h 2.34367 c 1.28902,0 2.38568,0.0893 2.43703,0.19844 0.0514,0.10914 -0.10389,1.8896 -0.34498,3.95658 l -0.43833,3.75814 -0.56245,0.13272 c -1.19634,0.2823 -4.29238,0.37362 -5.29327,0.15612 z"
       style="fill:#000000;stroke-width:0.23934744" />
  </g>
</svg>
